<svg width="25" height="24" viewBox="0 0 25 24" fill="none" xmlns="http://www.w3.org/2000/svg">
<path d="M8.33214 4.88765L8.22234 4.48768L7.80897 4.52169C6.9633 4.59127 6.16457 4.82308 5.5893 5.44922C5.01634 6.07283 4.75 6.99498 4.75 8.25V18C4.75 19.1777 5.02253 20.1446 5.68895 20.8111C6.35537 21.4775 7.32235 21.75 8.5 21.75H16.5C17.6777 21.75 18.6446 21.4775 19.3111 20.8111C19.9775 20.1446 20.25 19.1777 20.25 18V8.25C20.25 6.99485 19.9836 6.07493 19.4103 5.4525C18.8354 4.82835 18.0375 4.59668 17.1942 4.52196L16.7748 4.4848L16.6668 4.89164C16.3833 5.95879 15.4069 6.75 14.25 6.75H10.75C10.0829 6.75 9.45998 6.49286 8.98356 6.01644C8.66735 5.70023 8.45012 5.31743 8.33214 4.88765ZM16.5 22.25H8.5C7.08436 22.25 6.03832 21.8462 5.34605 21.1539C4.65379 20.4617 4.25 19.4156 4.25 18V8.25C4.25 6.75407 4.62939 5.71522 5.2973 5.0473C5.96522 4.37939 7.00407 4 8.5 4C8.63386 4 8.75 4.11614 8.75 4.25C8.75 4.78412 8.96375 5.29086 9.33645 5.66355C9.70915 6.03625 10.2159 6.25 10.75 6.25H14.25C15.3561 6.25 16.25 5.35614 16.25 4.25C16.25 4.11614 16.3661 4 16.5 4C17.9959 4 19.0348 4.37939 19.7027 5.0473C20.3706 5.71522 20.75 6.75407 20.75 8.25V18C20.75 19.4156 20.3462 20.4617 19.6539 21.1539C18.9617 21.8462 17.9156 22.25 16.5 22.25Z" fill="#757C98" stroke="#757C98"/>
<path d="M14.25 6.75H10.75C10.0829 6.75 9.45998 6.49286 8.98356 6.01644C8.50714 5.54002 8.25 4.91713 8.25 4.25C8.25 2.87614 9.37614 1.75 10.75 1.75H14.25C14.9171 1.75 15.54 2.00714 16.0164 2.48356C16.4929 2.95998 16.75 3.58287 16.75 4.25C16.75 5.62386 15.6239 6.75 14.25 6.75ZM10.75 2.25C9.64386 2.25 8.75 3.14386 8.75 4.25C8.75 4.78412 8.96375 5.29085 9.33645 5.66355C9.70914 6.03625 10.2159 6.25 10.75 6.25H14.25C15.3561 6.25 16.25 5.35614 16.25 4.25C16.25 3.71588 16.0362 3.20914 15.6636 2.83645C15.2909 2.46375 14.7841 2.25 14.25 2.25H10.75Z" fill="#757C98" stroke="#757C98"/>
<path d="M12.5 13.25H8.5C8.36614 13.25 8.25 13.1339 8.25 13C8.25 12.8661 8.36614 12.75 8.5 12.75H12.5C12.6339 12.75 12.75 12.8661 12.75 13C12.75 13.1339 12.6339 13.25 12.5 13.25Z" fill="#757C98" stroke="#757C98"/>
<path d="M16.5 17.25H8.5C8.36614 17.25 8.25 17.1339 8.25 17C8.25 16.8661 8.36614 16.75 8.5 16.75H16.5C16.6339 16.75 16.75 16.8661 16.75 17C16.75 17.1339 16.6339 17.25 16.5 17.25Z" fill="#757C98" stroke="#757C98"/>
</svg>
