<svg width="25" height="24" viewBox="0 0 25 24" fill="none" xmlns="http://www.w3.org/2000/svg">
<path d="M16.5 4.25C16.5 5.49 15.49 6.5 14.25 6.5H10.75C10.13 6.5 9.57 6.25 9.16 5.84C8.75 5.43 8.5 4.87 8.5 4.25C8.5 3.01 9.51 2 10.75 2H14.25C14.87 2 15.43 2.25 15.84 2.66C16.25 3.07 16.5 3.63 16.5 4.25Z" fill="#2C40FF"/>
<path d="M19.33 5.03002C19.1 4.84002 18.84 4.69002 18.56 4.58002C18.27 4.47002 17.98 4.70002 17.92 5.00002C17.58 6.71002 16.07 8.00002 14.25 8.00002H10.75C9.75 8.00002 8.81 7.61002 8.1 6.90002C7.58 6.38002 7.22 5.72002 7.08 5.01002C7.02 4.71002 6.72 4.47002 6.43 4.59002C5.27 5.06002 4.5 6.12002 4.5 8.25002V18C4.5 21 6.29 22 8.5 22H16.5C18.71 22 20.5 21 20.5 18V8.25002C20.5 6.62002 20.05 5.62002 19.33 5.03002ZM8.5 12.25H12.5C12.91 12.25 13.25 12.59 13.25 13C13.25 13.41 12.91 13.75 12.5 13.75H8.5C8.09 13.75 7.75 13.41 7.75 13C7.75 12.59 8.09 12.25 8.5 12.25ZM16.5 17.75H8.5C8.09 17.75 7.75 17.41 7.75 17C7.75 16.59 8.09 16.25 8.5 16.25H16.5C16.91 16.25 17.25 16.59 17.25 17C17.25 17.41 16.91 17.75 16.5 17.75Z" fill="#2C40FF"/>
</svg>
