<svg width="48" height="48" viewBox="0 0 48 48" fill="none" xmlns="http://www.w3.org/2000/svg">
<rect width="48" height="48" rx="24" fill="white" fill-opacity="0.09"/>
<rect x="0.5" y="0.5" width="47" height="47" rx="23.5" stroke="white" stroke-opacity="0.09"/>
<mask id="path-3-inside-1_52_378" fill="white">
<path d="M21.5699 30.82C21.3799 30.82 21.1899 30.75 21.0399 30.6L14.9699 24.53C14.6799 24.24 14.6799 23.76 14.9699 23.47L21.0399 17.4C21.3299 17.11 21.8099 17.11 22.0999 17.4C22.3899 17.69 22.3899 18.17 22.0999 18.46L16.5599 24L22.0999 29.54C22.3899 29.83 22.3899 30.31 22.0999 30.6C21.9599 30.75 21.7599 30.82 21.5699 30.82Z"/>
</mask>
<path d="M21.0399 30.6L19.9793 31.6607L21.0399 30.6ZM14.9699 24.53L16.0306 23.4693V23.4693L14.9699 24.53ZM14.9699 23.47L16.0306 24.5307L14.9699 23.47ZM21.0399 17.4L19.9793 16.3393L21.0399 17.4ZM22.0999 18.46L23.1606 19.5207L22.0999 18.46ZM16.5599 24L15.4993 22.9393L14.4386 24L15.4993 25.0607L16.5599 24ZM22.0999 29.54L21.0393 30.6007L22.0999 29.54ZM22.0999 30.6L21.0393 29.5393L21.021 29.5576L21.0034 29.5765L22.0999 30.6ZM21.5699 29.32C21.7563 29.32 21.9545 29.3932 22.1006 29.5393L19.9793 31.6607C20.4254 32.1068 21.0036 32.32 21.5699 32.32V29.32ZM22.1006 29.5393L16.0306 23.4693L13.9093 25.5907L19.9793 31.6607L22.1006 29.5393ZM16.0306 23.4693C16.3264 23.7651 16.3264 24.2349 16.0306 24.5307L13.9093 22.4093C13.0335 23.2851 13.0335 24.7149 13.9093 25.5907L16.0306 23.4693ZM16.0306 24.5307L22.1006 18.4607L19.9793 16.3393L13.9093 22.4093L16.0306 24.5307ZM22.1006 18.4607C21.8048 18.7564 21.3351 18.7564 21.0393 18.4607L23.1606 16.3393C22.2848 15.4635 20.8551 15.4635 19.9793 16.3393L22.1006 18.4607ZM21.0393 18.4607C20.7435 18.1649 20.7435 17.6951 21.0393 17.3993L23.1606 19.5207C24.0364 18.6449 24.0364 17.2151 23.1606 16.3393L21.0393 18.4607ZM21.0393 17.3993L15.4993 22.9393L17.6206 25.0607L23.1606 19.5207L21.0393 17.3993ZM15.4993 25.0607L21.0393 30.6007L23.1606 28.4793L17.6206 22.9393L15.4993 25.0607ZM21.0393 30.6007C20.7435 30.3049 20.7435 29.8351 21.0393 29.5393L23.1606 31.6607C24.0364 30.7849 24.0364 29.3551 23.1606 28.4793L21.0393 30.6007ZM21.0034 29.5765C21.1926 29.3737 21.416 29.32 21.5699 29.32V32.32C22.1039 32.32 22.7273 32.1262 23.1965 31.6235L21.0034 29.5765Z" fill="white" mask="url(#path-3-inside-1_52_378)"/>
<path d="M32.4999 24.25H15.6699C15.5361 24.25 15.4199 24.1339 15.4199 24C15.4199 23.8661 15.5361 23.75 15.6699 23.75H32.4999C32.6338 23.75 32.7499 23.8661 32.7499 24C32.7499 24.1339 32.6338 24.25 32.4999 24.25Z" stroke="white"/>
</svg>
