<svg width="84" height="23" viewBox="0 0 84 23" fill="none" xmlns="http://www.w3.org/2000/svg">
<g filter="url(#filter0_b_235_1550)">
<rect width="84" height="23" rx="11.5" fill="#277B53" fill-opacity="0.09"/>
<circle cx="13" cy="11.5" r="5" fill="#277B53"/>
<path d="M22.5597 16L25.6437 7.06H27.7557L30.8397 16H29.0637L28.4277 14.08H24.9717L24.3237 16H22.5597ZM25.4397 12.64H27.9597L26.4717 8.188H26.9277L25.4397 12.64ZM33.3074 16L30.7394 9.472H32.4554L34.3154 14.608H33.6794L35.5514 9.472H37.2674L34.6994 16H33.3074ZM39.8819 16.144C39.4259 16.144 39.0299 16.068 38.6939 15.916C38.3579 15.764 38.0979 15.548 37.9139 15.268C37.7299 14.98 37.6379 14.648 37.6379 14.272C37.6379 13.912 37.7179 13.592 37.8779 13.312C38.0379 13.024 38.2859 12.784 38.6219 12.592C38.9579 12.4 39.3819 12.264 39.8939 12.184L42.0299 11.836V13.036L40.1939 13.348C39.8819 13.404 39.6499 13.504 39.4979 13.648C39.3459 13.792 39.2699 13.98 39.2699 14.212C39.2699 14.436 39.3539 14.616 39.5219 14.752C39.6979 14.88 39.9139 14.944 40.1699 14.944C40.4979 14.944 40.7859 14.876 41.0339 14.74C41.2899 14.596 41.4859 14.4 41.6219 14.152C41.7659 13.904 41.8379 13.632 41.8379 13.336V11.656C41.8379 11.376 41.7259 11.144 41.5019 10.96C41.2859 10.768 40.9979 10.672 40.6379 10.672C40.3019 10.672 40.0019 10.764 39.7379 10.948C39.4819 11.124 39.2939 11.36 39.1739 11.656L37.8899 11.032C38.0179 10.688 38.2179 10.392 38.4899 10.144C38.7699 9.888 39.0979 9.688 39.4739 9.544C39.8499 9.4 40.2579 9.328 40.6979 9.328C41.2339 9.328 41.7059 9.428 42.1139 9.628C42.5219 9.82 42.8379 10.092 43.0619 10.444C43.2939 10.788 43.4099 11.192 43.4099 11.656V16H41.9219V14.884L42.2579 14.86C42.0899 15.14 41.8899 15.376 41.6579 15.568C41.4259 15.752 41.1619 15.896 40.8659 16C40.5699 16.096 40.2419 16.144 39.8819 16.144ZM44.8629 16V9.472H46.4349V16H44.8629ZM44.8629 8.74V7.06H46.4349V8.74H44.8629ZM47.8863 16V6.916H49.4583V16H47.8863ZM52.8897 16.144C52.4337 16.144 52.0377 16.068 51.7017 15.916C51.3657 15.764 51.1057 15.548 50.9217 15.268C50.7377 14.98 50.6457 14.648 50.6457 14.272C50.6457 13.912 50.7257 13.592 50.8857 13.312C51.0457 13.024 51.2937 12.784 51.6297 12.592C51.9657 12.4 52.3897 12.264 52.9017 12.184L55.0377 11.836V13.036L53.2017 13.348C52.8897 13.404 52.6577 13.504 52.5057 13.648C52.3537 13.792 52.2777 13.98 52.2777 14.212C52.2777 14.436 52.3617 14.616 52.5297 14.752C52.7057 14.88 52.9217 14.944 53.1777 14.944C53.5057 14.944 53.7937 14.876 54.0417 14.74C54.2977 14.596 54.4937 14.4 54.6297 14.152C54.7737 13.904 54.8457 13.632 54.8457 13.336V11.656C54.8457 11.376 54.7337 11.144 54.5097 10.96C54.2937 10.768 54.0057 10.672 53.6457 10.672C53.3097 10.672 53.0097 10.764 52.7457 10.948C52.4897 11.124 52.3017 11.36 52.1817 11.656L50.8977 11.032C51.0257 10.688 51.2257 10.392 51.4977 10.144C51.7777 9.888 52.1057 9.688 52.4817 9.544C52.8577 9.4 53.2657 9.328 53.7057 9.328C54.2417 9.328 54.7137 9.428 55.1217 9.628C55.5297 9.82 55.8457 10.092 56.0697 10.444C56.3017 10.788 56.4177 11.192 56.4177 11.656V16H54.9297V14.884L55.2657 14.86C55.0977 15.14 54.8977 15.376 54.6657 15.568C54.4337 15.752 54.1697 15.896 53.8737 16C53.5777 16.096 53.2497 16.144 52.8897 16.144ZM61.4347 16.144C60.9627 16.144 60.5267 16.052 60.1267 15.868C59.7347 15.676 59.4227 15.404 59.1907 15.052L59.3467 14.74V16H57.8707V6.916H59.4427V10.768L59.2027 10.444C59.4267 10.092 59.7307 9.82 60.1147 9.628C60.4987 9.428 60.9427 9.328 61.4467 9.328C62.0627 9.328 62.6187 9.48 63.1147 9.784C63.6107 10.088 64.0027 10.496 64.2907 11.008C64.5867 11.52 64.7347 12.096 64.7347 12.736C64.7347 13.368 64.5907 13.944 64.3027 14.464C64.0147 14.984 63.6227 15.396 63.1267 15.7C62.6307 15.996 62.0667 16.144 61.4347 16.144ZM61.2547 14.704C61.6147 14.704 61.9347 14.62 62.2147 14.452C62.4947 14.284 62.7107 14.052 62.8627 13.756C63.0227 13.46 63.1027 13.12 63.1027 12.736C63.1027 12.352 63.0227 12.016 62.8627 11.728C62.7107 11.432 62.4947 11.2 62.2147 11.032C61.9347 10.856 61.6147 10.768 61.2547 10.768C60.9107 10.768 60.5987 10.852 60.3187 11.02C60.0467 11.188 59.8307 11.424 59.6707 11.728C59.5187 12.024 59.4427 12.36 59.4427 12.736C59.4427 13.12 59.5187 13.46 59.6707 13.756C59.8307 14.052 60.0467 14.284 60.3187 14.452C60.5987 14.62 60.9107 14.704 61.2547 14.704ZM65.9332 16V6.916H67.5052V16H65.9332ZM72.0526 16.144C71.3806 16.144 70.7926 15.992 70.2886 15.688C69.7846 15.384 69.3926 14.972 69.1126 14.452C68.8326 13.932 68.6926 13.356 68.6926 12.724C68.6926 12.068 68.8326 11.488 69.1126 10.984C69.4006 10.472 69.7886 10.068 70.2766 9.772C70.7726 9.476 71.3246 9.328 71.9326 9.328C72.4446 9.328 72.8926 9.412 73.2766 9.58C73.6686 9.748 74.0006 9.98 74.2726 10.276C74.5446 10.572 74.7526 10.912 74.8966 11.296C75.0406 11.672 75.1126 12.08 75.1126 12.52C75.1126 12.632 75.1046 12.748 75.0886 12.868C75.0806 12.988 75.0606 13.092 75.0286 13.18H69.9886V11.98H74.1406L73.3966 12.544C73.4686 12.176 73.4486 11.848 73.3366 11.56C73.2326 11.272 73.0566 11.044 72.8086 10.876C72.5686 10.708 72.2766 10.624 71.9326 10.624C71.6046 10.624 71.3126 10.708 71.0566 10.876C70.8006 11.036 70.6046 11.276 70.4686 11.596C70.3406 11.908 70.2926 12.288 70.3246 12.736C70.2926 13.136 70.3446 13.492 70.4806 13.804C70.6246 14.108 70.8326 14.344 71.1046 14.512C71.3846 14.68 71.7046 14.764 72.0646 14.764C72.4246 14.764 72.7286 14.688 72.9766 14.536C73.2326 14.384 73.4326 14.18 73.5766 13.924L74.8486 14.548C74.7206 14.86 74.5206 15.136 74.2486 15.376C73.9766 15.616 73.6526 15.804 73.2766 15.94C72.9086 16.076 72.5006 16.144 72.0526 16.144Z" fill="#277B53"/>
</g>
<defs>
<filter id="filter0_b_235_1550" x="-12" y="-12" width="108" height="47" filterUnits="userSpaceOnUse" color-interpolation-filters="sRGB">
<feFlood flood-opacity="0" result="BackgroundImageFix"/>
<feGaussianBlur in="BackgroundImageFix" stdDeviation="6"/>
<feComposite in2="SourceAlpha" operator="in" result="effect1_backgroundBlur_235_1550"/>
<feBlend mode="normal" in="SourceGraphic" in2="effect1_backgroundBlur_235_1550" result="shape"/>
</filter>
</defs>
</svg>
