<svg width="24" height="24" viewBox="0 0 24 24" fill="none" xmlns="http://www.w3.org/2000/svg">
<path d="M12 22C6.48421 22 2 17.5158 2 12M12 22C17.5158 22 22 17.5158 22 12M12 22C17.5142 22 22 17.5142 22 12M12 22C6.48579 22 2 17.5142 2 12M2 12C2 6.48421 6.48421 2 12 2M2 12C2 6.48579 6.48579 2 12 2M22 12C22 6.48421 17.5158 2 12 2M22 12C22 6.48579 17.5142 2 12 2" stroke="#757C98" stroke-width="1.5"/>
<mask id="path-2-inside-1_88_1829" fill="white">
<path d="M13.2599 16.28C13.0699 16.28 12.8799 16.21 12.7299 16.06L9.19992 12.53C8.90992 12.24 8.90992 11.76 9.19992 11.47L12.7299 7.94003C13.0199 7.65003 13.4999 7.65003 13.7899 7.94003C14.0799 8.23003 14.0799 8.71003 13.7899 9.00003L10.7899 12L13.7899 15C14.0799 15.29 14.0799 15.77 13.7899 16.06C13.6499 16.21 13.4599 16.28 13.2599 16.28Z"/>
</mask>
<path d="M12.7299 16.06L11.6693 17.1207L12.7299 16.06ZM9.19992 12.53L10.2606 11.4694L9.19992 12.53ZM9.19992 11.47L10.2606 12.5307L9.19992 11.47ZM12.7299 7.94003L11.6693 6.87937L11.6693 6.87937L12.7299 7.94003ZM10.7899 12L9.72926 10.9394L8.6686 12L9.72926 13.0607L10.7899 12ZM13.7899 15L14.8506 13.9394L13.7899 15ZM13.7899 16.06L12.7293 14.9994L12.711 15.0177L12.6933 15.0366L13.7899 16.06ZM13.2599 14.78C13.4463 14.78 13.6445 14.8532 13.7906 14.9994L11.6693 17.1207C12.1154 17.5668 12.6936 17.78 13.2599 17.78V14.78ZM13.7906 14.9994L10.2606 11.4694L8.13926 13.5907L11.6693 17.1207L13.7906 14.9994ZM10.2606 11.4694C10.5564 11.7652 10.5564 12.2349 10.2606 12.5307L8.13926 10.4094C7.26348 11.2852 7.26348 12.7149 8.13926 13.5907L10.2606 11.4694ZM10.2606 12.5307L13.7906 9.00069L11.6693 6.87937L8.13926 10.4094L10.2606 12.5307ZM13.7906 9.00069C13.4948 9.29648 13.025 9.29648 12.7293 9.00069L14.8506 6.87937C13.9748 6.00359 12.545 6.00359 11.6693 6.87937L13.7906 9.00069ZM12.7293 9.00069C12.4335 8.70491 12.4335 8.23516 12.7293 7.93937L14.8506 10.0607C15.7264 9.18491 15.7264 7.75516 14.8506 6.87937L12.7293 9.00069ZM12.7293 7.93937L9.72926 10.9394L11.8506 13.0607L14.8506 10.0607L12.7293 7.93937ZM9.72926 13.0607L12.7293 16.0607L14.8506 13.9394L11.8506 10.9394L9.72926 13.0607ZM12.7293 16.0607C12.4335 15.7649 12.4335 15.2952 12.7293 14.9994L14.8506 17.1207C15.7264 16.2449 15.7264 14.8152 14.8506 13.9394L12.7293 16.0607ZM12.6933 15.0366C12.876 14.8409 13.1049 14.78 13.2599 14.78V17.78C13.8149 17.78 14.4239 17.5792 14.8865 17.0835L12.6933 15.0366Z" fill="#757C98" mask="url(#path-2-inside-1_88_1829)"/>
</svg>
