<svg width="24" height="24" viewBox="0 0 24 24" fill="none" xmlns="http://www.w3.org/2000/svg">
<path d="M12 22C6.48421 22 2 17.5158 2 12M12 22C17.5158 22 22 17.5158 22 12M12 22C17.5142 22 22 17.5142 22 12M12 22C6.48579 22 2 17.5142 2 12M2 12C2 6.48421 6.48421 2 12 2M2 12C2 6.48579 6.48579 2 12 2M22 12C22 6.48421 17.5158 2 12 2M22 12C22 6.48579 17.5142 2 12 2" stroke="#757C98" stroke-width="1.5"/>
<mask id="path-2-inside-1_88_1840" fill="white">
<path d="M10.7402 16.28C10.5502 16.28 10.3602 16.21 10.2102 16.06C9.92018 15.77 9.92018 15.29 10.2102 15L13.2102 12L10.2102 9.00003C9.92018 8.71003 9.92018 8.23003 10.2102 7.94003C10.5002 7.65003 10.9802 7.65003 11.2702 7.94003L14.8002 11.47C15.0902 11.76 15.0902 12.24 14.8002 12.53L11.2702 16.06C11.1202 16.21 10.9302 16.28 10.7402 16.28Z"/>
</mask>
<path d="M10.2102 15L11.2708 16.0607L10.2102 15ZM13.2102 12L14.2708 13.0607L15.3315 12L14.2708 10.9394L13.2102 12ZM10.2102 9.00003L11.2708 7.93937V7.93937L10.2102 9.00003ZM11.2702 7.94003L12.3308 6.87937L11.2702 7.94003ZM14.8002 11.47L13.7395 12.5307L14.8002 11.47ZM14.8002 12.53L15.8608 13.5907L14.8002 12.53ZM11.2702 16.06L10.2095 14.9994H10.2095L11.2702 16.06ZM10.7402 14.78C10.9265 14.78 11.1247 14.8533 11.2708 14.9994L9.14952 17.1207C9.59564 17.5668 10.1738 17.78 10.7402 17.78V14.78ZM11.2708 14.9994C11.5666 15.2952 11.5666 15.7649 11.2708 16.0607L9.14952 13.9394C8.27373 14.8152 8.27373 16.2449 9.14952 17.1207L11.2708 14.9994ZM11.2708 16.0607L14.2708 13.0607L12.1495 10.9394L9.14952 13.9394L11.2708 16.0607ZM14.2708 10.9394L11.2708 7.93937L9.14952 10.0607L12.1495 13.0607L14.2708 10.9394ZM11.2708 7.93937C11.5666 8.23516 11.5666 8.70491 11.2708 9.00069L9.14952 6.87937C8.27373 7.75516 8.27373 9.18491 9.14952 10.0607L11.2708 7.93937ZM11.2708 9.00069C10.975 9.29648 10.5053 9.29648 10.2095 9.00069L12.3308 6.87937C11.455 6.00359 10.0253 6.00359 9.14952 6.87937L11.2708 9.00069ZM10.2095 9.00069L13.7395 12.5307L15.8608 10.4094L12.3308 6.87937L10.2095 9.00069ZM13.7395 12.5307C13.4437 12.2349 13.4437 11.7652 13.7395 11.4694L15.8608 13.5907C16.7366 12.7149 16.7366 11.2852 15.8608 10.4094L13.7395 12.5307ZM13.7395 11.4694L10.2095 14.9994L12.3308 17.1207L15.8608 13.5907L13.7395 11.4694ZM10.2095 14.9994C10.3556 14.8532 10.5538 14.78 10.7402 14.78V17.78C11.3065 17.78 11.8847 17.5668 12.3308 17.1207L10.2095 14.9994Z" fill="#757C98" mask="url(#path-2-inside-1_88_1840)"/>
</svg>
