<svg width="24" height="24" viewBox="0 0 24 24" fill="none" xmlns="http://www.w3.org/2000/svg">
<path d="M12 22C6.48421 22 2 17.5158 2 12M12 22C17.5158 22 22 17.5158 22 12M12 22C17.5142 22 22 17.5142 22 12M12 22C6.48579 22 2 17.5142 2 12M2 12C2 6.48421 6.48421 2 12 2M2 12C2 6.48579 6.48579 2 12 2M22 12C22 6.48421 17.5158 2 12 2M22 12C22 6.48579 17.5142 2 12 2" stroke="#2C40FF" stroke-width="1.5"/>
<path d="M15.7143 15.1749C15.7141 15.1751 15.7139 15.1753 15.7137 15.1755L12.6148 13.3262C12.1596 13.0542 11.7826 12.4724 11.6726 11.9222C11.722 12.1674 11.8214 12.3977 11.927 12.5833C12.0752 12.844 12.308 13.1438 12.6189 13.3259L15.7154 15.1738C15.715 15.1742 15.7147 15.1746 15.7143 15.1749Z" stroke="#2C40FF" stroke-width="1.5"/>
</svg>
