<svg width="24" height="25" viewBox="0 0 24 25" fill="none" xmlns="http://www.w3.org/2000/svg">
<path d="M11.1362 22.5L10.4402 21.3594C10.4139 21.3162 10.3886 21.2716 10.3643 21.2254C10.4669 21.4151 10.5947 21.5904 10.7522 21.7478C11.322 22.3176 12.1253 22.5 13 22.5H11.1362ZM3.45042 22.222C3.16686 22.0987 2.93468 21.939 2.74783 21.7522C2.56098 21.5653 2.40127 21.3331 2.27801 21.0496C2.39227 21.3075 2.54713 21.5428 2.75217 21.7478C2.9572 21.9529 3.19247 22.1077 3.45042 22.222ZM2.75217 9.25217C2.54713 9.45721 2.39226 9.69248 2.27801 9.95043C2.40127 9.66686 2.56097 9.43469 2.74783 9.24783C2.93469 9.06097 3.16686 8.90127 3.45043 8.77801C3.19248 8.89226 2.95721 9.04713 2.75217 9.25217Z" stroke="#757C98" stroke-width="1.5"/>
<path d="M10 5.25V4.5H10.1042C10.1043 4.5001 10.1043 4.50021 10.1043 4.5003C10.0197 4.81475 10 5.14143 10 5.5V5.49947V5.49895V5.49842V5.49789V5.49737V5.49684V5.49631V5.49579V5.49526V5.49474V5.49421V5.49369V5.49316V5.49264V5.49212V5.49159V5.49107V5.49054V5.49002V5.4895V5.48898V5.48845V5.48793V5.48741V5.48689V5.48637V5.48584V5.48532V5.4848V5.48428V5.48376V5.48324V5.48272V5.4822V5.48168V5.48116V5.48064V5.48012V5.4796V5.47908V5.47857V5.47805V5.47753V5.47701V5.47649V5.47598V5.47546V5.47494V5.47443V5.47391V5.47339V5.47288V5.47236V5.47185V5.47133V5.47081V5.4703V5.46978V5.46927V5.46876V5.46824V5.46773V5.46721V5.4667V5.46619V5.46567V5.46516V5.46465V5.46413V5.46362V5.46311V5.4626V5.46208V5.46157V5.46106V5.46055V5.46004V5.45953V5.45902V5.45851V5.458V5.45749V5.45698V5.45647V5.45596V5.45545V5.45494V5.45443V5.45392V5.45341V5.4529V5.45239V5.45189V5.45138V5.45087V5.45036V5.44986V5.44935V5.44884V5.44834V5.44783V5.44732V5.44682V5.44631V5.4458V5.4453V5.44479V5.44429V5.44378V5.44328V5.44277V5.44227V5.44176V5.44126V5.44076V5.44025V5.43975V5.43924V5.43874V5.43824V5.43773V5.43723V5.43673V5.43623V5.43572V5.43522V5.43472V5.43422V5.43372V5.43322V5.43271V5.43221V5.43171V5.43121V5.43071V5.43021V5.42971V5.42921V5.42871V5.42821V5.42771V5.42721V5.42671V5.42621V5.42571V5.42522V5.42472V5.42422V5.42372V5.42322V5.42272V5.42223V5.42173V5.42123V5.42073V5.42024V5.41974V5.41924V5.41875V5.41825V5.41775V5.41726V5.41676V5.41627V5.41577V5.41527V5.41478V5.41428V5.41379V5.41329V5.4128V5.4123V5.41181V5.41131V5.41082V5.41033V5.40983V5.40934V5.40884V5.40835V5.40786V5.40736V5.40687V5.40638V5.40589V5.40539V5.4049V5.40441V5.40392V5.40342V5.40293V5.40244V5.40195V5.40146V5.40097V5.40048V5.39998V5.39949V5.399V5.39851V5.39802V5.39753V5.39704V5.39655V5.39606V5.39557V5.39508V5.39459V5.3941V5.39361V5.39313V5.39264V5.39215V5.39166V5.39117V5.39068V5.39019V5.38971V5.38922V5.38873V5.38824V5.38775V5.38727V5.38678V5.38629V5.38581V5.38532V5.38483V5.38434V5.38386V5.38337V5.38289V5.3824V5.38191V5.38143V5.38094V5.38046V5.37997V5.37948V5.379V5.37851V5.37803V5.37754V5.37706V5.37657V5.37609V5.37561V5.37512V5.37464V5.37415V5.37367V5.37318V5.3727V5.37222V5.37173V5.37125V5.37077V5.37028V5.3698V5.36932V5.36883V5.36835V5.36787V5.36739V5.3669V5.36642V5.36594V5.36546V5.36498V5.36449V5.36401V5.36353V5.36305V5.36257V5.36209V5.3616V5.36112V5.36064V5.36016V5.35968V5.3592V5.35872V5.35824V5.35776V5.35728V5.3568V5.35632V5.35584V5.35536V5.35488V5.3544V5.35392V5.35344V5.35296V5.35248V5.352V5.35152V5.35104V5.35056V5.35008V5.34961V5.34913V5.34865V5.34817V5.34769V5.34721V5.34674V5.34626V5.34578V5.3453V5.34482V5.34435V5.34387V5.34339V5.34291V5.34244V5.34196V5.34148V5.341V5.34053V5.34005V5.33957V5.3391V5.33862V5.33814V5.33767V5.33719V5.33671V5.33624V5.33576V5.33529V5.33481V5.33433V5.33386V5.33338V5.33291V5.33243V5.33195V5.33148V5.331V5.33053V5.33005V5.32958V5.3291V5.32863V5.32815V5.32768V5.3272V5.32673V5.32625V5.32578V5.32531V5.32483V5.32436V5.32388V5.32341V5.32293V5.32246V5.32199V5.32151V5.32104V5.32056V5.32009V5.31962V5.31914V5.31867V5.3182V5.31772V5.31725V5.31678V5.3163V5.31583V5.31536V5.31488V5.31441V5.31394V5.31346V5.31299V5.31252V5.31205V5.31157V5.3111V5.31063V5.31016V5.30968V5.30921V5.30874V5.30827V5.30779V5.30732V5.30685V5.30638V5.30591V5.30543V5.30496V5.30449V5.30402V5.30355V5.30308V5.3026V5.30213V5.30166V5.30119V5.30072V5.30025V5.29978V5.2993V5.29883V5.29836V5.29789V5.29742V5.29695V5.29648V5.29601V5.29554V5.29507V5.2946V5.29412V5.29365V5.29318V5.29271V5.29224V5.29177V5.2913V5.29083V5.29036V5.28989V5.28942V5.28895V5.28848V5.28801V5.28754V5.28707V5.2866V5.28613V5.28566V5.28519V5.28472V5.28425V5.28378V5.28331V5.28284V5.28237V5.2819V5.28143V5.28096V5.28049V5.28002V5.27955V5.27908V5.27861V5.27814V5.27767V5.2772V5.27673V5.27626V5.27579V5.27532V5.27485V5.27439V5.27392V5.27345V5.27298V5.27251V5.27204V5.27157V5.2711V5.27063V5.27016V5.26969V5.26922V5.26875V5.26829V5.26782V5.26735V5.26688V5.26641V5.26594V5.26547V5.265V5.26453V5.26406V5.2636V5.26313V5.26266V5.26219V5.26172V5.26125V5.26078V5.26031V5.25984V5.25938V5.25891V5.25844V5.25797V5.2575V5.25703V5.25656V5.25609V5.25563V5.25516V5.25469V5.25422V5.25375V5.25328V5.25281V5.25234V5.25188V5.25141V5.25094V5.25047V5.25ZM5 6.5C5 5.39421 5.89421 4.5 7 4.5C5.89579 4.5 5 5.39579 5 6.5Z" stroke="#757C98" stroke-width="1.5"/>
<mask id="path-3-inside-1_421_650" fill="white">
<path d="M14 14.25C13.59 14.25 13.25 13.91 13.25 13.5V8.5C13.25 8.09 13.59 7.75 14 7.75C14.41 7.75 14.75 8.09 14.75 8.5V13.5C14.75 13.91 14.41 14.25 14 14.25Z"/>
</mask>
<path d="M14 12.75C14.4184 12.75 14.75 13.0816 14.75 13.5H11.75C11.75 14.7384 12.7616 15.75 14 15.75V12.75ZM14.75 13.5V8.5H11.75V13.5H14.75ZM14.75 8.5C14.75 8.91843 14.4184 9.25 14 9.25V6.25C12.7616 6.25 11.75 7.26157 11.75 8.5H14.75ZM14 9.25C13.5816 9.25 13.25 8.91843 13.25 8.5H16.25C16.25 7.26157 15.2384 6.25 14 6.25V9.25ZM13.25 8.5V13.5H16.25V8.5H13.25ZM13.25 13.5C13.25 13.0816 13.5816 12.75 14 12.75V15.75C15.2384 15.75 16.25 14.7384 16.25 13.5H13.25Z" fill="#757C98" mask="url(#path-3-inside-1_421_650)"/>
<mask id="path-5-inside-2_421_650" fill="white">
<path d="M18 14.25C17.59 14.25 17.25 13.91 17.25 13.5V8.5C17.25 8.09 17.59 7.75 18 7.75C18.41 7.75 18.75 8.09 18.75 8.5V13.5C18.75 13.91 18.41 14.25 18 14.25Z"/>
</mask>
<path d="M18 12.75C18.4184 12.75 18.75 13.0816 18.75 13.5H15.75C15.75 14.7384 16.7616 15.75 18 15.75V12.75ZM18.75 13.5V8.5H15.75V13.5H18.75ZM18.75 8.5C18.75 8.91843 18.4184 9.25 18 9.25V6.25C16.7616 6.25 15.75 7.26157 15.75 8.5H18.75ZM18 9.25C17.5816 9.25 17.25 8.91843 17.25 8.5H20.25C20.25 7.26157 19.2384 6.25 18 6.25V9.25ZM17.25 8.5V13.5H20.25V8.5H17.25ZM17.25 13.5C17.25 13.0816 17.5816 12.75 18 12.75V15.75C19.2384 15.75 20.25 14.7384 20.25 13.5H17.25Z" fill="#757C98" mask="url(#path-5-inside-2_421_650)"/>
<mask id="path-7-inside-3_421_650" fill="white">
<path d="M18 23.25H14C13.59 23.25 13.25 22.91 13.25 22.5V18.5C13.25 17.54 14.04 16.75 15 16.75H17C17.96 16.75 18.75 17.54 18.75 18.5V22.5C18.75 22.91 18.41 23.25 18 23.25ZM14.75 21.75H17.25V18.5C17.25 18.36 17.14 18.25 17 18.25H15C14.86 18.25 14.75 18.36 14.75 18.5V21.75Z"/>
</mask>
<path d="M14.75 21.75H13.25V23.25H14.75V21.75ZM17.25 21.75V23.25H18.75V21.75H17.25ZM18 21.75H14V24.75H18V21.75ZM14 21.75C14.4184 21.75 14.75 22.0816 14.75 22.5H11.75C11.75 23.7384 12.7616 24.75 14 24.75V21.75ZM14.75 22.5V18.5H11.75V22.5H14.75ZM14.75 18.5C14.75 18.4393 14.7739 18.3774 14.8257 18.3257C14.8774 18.2739 14.9393 18.25 15 18.25V15.25C13.2116 15.25 11.75 16.7116 11.75 18.5H14.75ZM15 18.25H17V15.25H15V18.25ZM17 18.25C17.0607 18.25 17.1226 18.2739 17.1743 18.3257C17.2261 18.3774 17.25 18.4393 17.25 18.5H20.25C20.25 16.7116 18.7884 15.25 17 15.25V18.25ZM17.25 18.5V22.5H20.25V18.5H17.25ZM17.25 22.5C17.25 22.0816 17.5816 21.75 18 21.75V24.75C19.2384 24.75 20.25 23.7384 20.25 22.5H17.25ZM14.75 23.25H17.25V20.25H14.75V23.25ZM18.75 21.75V18.5H15.75V21.75H18.75ZM18.75 18.5C18.75 17.5316 17.9684 16.75 17 16.75V19.75C16.3116 19.75 15.75 19.1884 15.75 18.5H18.75ZM17 16.75H15V19.75H17V16.75ZM15 16.75C14.0316 16.75 13.25 17.5316 13.25 18.5H16.25C16.25 19.1884 15.6884 19.75 15 19.75V16.75ZM13.25 18.5V21.75H16.25V18.5H13.25Z" fill="#757C98" mask="url(#path-7-inside-3_421_650)"/>
<mask id="path-9-inside-4_421_650" fill="white">
<path d="M6 18.25C5.59 18.25 5.25 17.91 5.25 17.5V13.5C5.25 13.09 5.59 12.75 6 12.75C6.41 12.75 6.75 13.09 6.75 13.5V17.5C6.75 17.91 6.41 18.25 6 18.25Z"/>
</mask>
<path d="M6 16.75C6.41843 16.75 6.75 17.0816 6.75 17.5H3.75C3.75 18.7384 4.76157 19.75 6 19.75V16.75ZM6.75 17.5V13.5H3.75V17.5H6.75ZM6.75 13.5C6.75 13.9184 6.41843 14.25 6 14.25V11.25C4.76157 11.25 3.75 12.2616 3.75 13.5H6.75ZM6 14.25C5.58157 14.25 5.25 13.9184 5.25 13.5H8.25C8.25 12.2616 7.23843 11.25 6 11.25V14.25ZM5.25 13.5V17.5H8.25V13.5H5.25ZM5.25 17.5C5.25 17.0816 5.58157 16.75 6 16.75V19.75C7.23843 19.75 8.25 18.7384 8.25 17.5H5.25Z" fill="#757C98" mask="url(#path-9-inside-4_421_650)"/>
<path d="M10.7522 21.7478C10.9572 21.9529 11.1925 22.1077 11.4504 22.222C11.1669 22.0987 10.9347 21.939 10.7478 21.7522C10.561 21.5653 10.4013 21.3331 10.278 21.0496C10.3923 21.3075 10.5471 21.5428 10.7522 21.7478ZM10.7522 3.25217C10.5471 3.45721 10.3923 3.69248 10.278 3.95043C10.4013 3.66686 10.561 3.43469 10.7478 3.24783C10.9347 3.06097 11.1669 2.90127 11.4504 2.77801C11.1925 2.89226 10.9572 3.04713 10.7522 3.25217ZM21.2478 3.25217C21.0428 3.04713 20.8075 2.89227 20.5496 2.77801C20.8331 2.90127 21.0653 3.06098 21.2522 3.24783C21.439 3.43468 21.5987 3.66686 21.722 3.95042C21.6077 3.69247 21.4529 3.4572 21.2478 3.25217ZM21.2478 21.7478C21.4529 21.5428 21.6077 21.3075 21.722 21.0496C21.5987 21.3331 21.439 21.5653 21.2522 21.7522C21.0653 21.939 20.8331 22.0987 20.5496 22.222C20.8075 22.1077 21.0428 21.9529 21.2478 21.7478Z" stroke="#757C98" stroke-width="1.5"/>
</svg>
