<svg width="56" height="56" viewBox="0 0 56 56" fill="none" xmlns="http://www.w3.org/2000/svg">
<rect width="56" height="56" rx="12" fill="#2C40FF" fill-opacity="0.09"/>
<path d="M38 37.25H18C17.59 37.25 17.25 37.59 17.25 38C17.25 38.41 17.59 38.75 18 38.75H38C38.41 38.75 38.75 38.41 38.75 38C38.75 37.59 38.41 37.25 38 37.25Z" fill="#2C40FF"/>
<path d="M33 18H23C20 18 19 19.79 19 22V38H25V31.94C25 31.42 25.42 31 25.94 31H30.07C30.58 31 31.01 31.42 31.01 31.94V38H37.01V22C37 19.79 36 18 33 18ZM30.5 25.25H28.75V27C28.75 27.41 28.41 27.75 28 27.75C27.59 27.75 27.25 27.41 27.25 27V25.25H25.5C25.09 25.25 24.75 24.91 24.75 24.5C24.75 24.09 25.09 23.75 25.5 23.75H27.25V22C27.25 21.59 27.59 21.25 28 21.25C28.41 21.25 28.75 21.59 28.75 22V23.75H30.5C30.91 23.75 31.25 24.09 31.25 24.5C31.25 24.91 30.91 25.25 30.5 25.25Z" fill="#2C40FF"/>
</svg>
