<svg width="24" height="25" viewBox="0 0 24 25" fill="none" xmlns="http://www.w3.org/2000/svg">
<mask id="path-1-inside-1_74_625" fill="white">
<path d="M8 6.25C7.59 6.25 7.25 5.91 7.25 5.5V2.5C7.25 2.09 7.59 1.75 8 1.75C8.41 1.75 8.75 2.09 8.75 2.5V5.5C8.75 5.91 8.41 6.25 8 6.25Z"/>
</mask>
<path d="M8 4.75C8.41843 4.75 8.75 5.08157 8.75 5.5H5.75C5.75 6.73843 6.76157 7.75 8 7.75V4.75ZM8.75 5.5V2.5H5.75V5.5H8.75ZM8.75 2.5C8.75 2.91843 8.41843 3.25 8 3.25V0.25C6.76157 0.25 5.75 1.26157 5.75 2.5H8.75ZM8 3.25C7.58157 3.25 7.25 2.91843 7.25 2.5H10.25C10.25 1.26157 9.23843 0.25 8 0.25V3.25ZM7.25 2.5V5.5H10.25V2.5H7.25ZM7.25 5.5C7.25 5.08157 7.58157 4.75 8 4.75V7.75C9.23843 7.75 10.25 6.73843 10.25 5.5H7.25Z" fill="#757C98" mask="url(#path-1-inside-1_74_625)"/>
<mask id="path-3-inside-2_74_625" fill="white">
<path d="M16 6.25C15.59 6.25 15.25 5.91 15.25 5.5V2.5C15.25 2.09 15.59 1.75 16 1.75C16.41 1.75 16.75 2.09 16.75 2.5V5.5C16.75 5.91 16.41 6.25 16 6.25Z"/>
</mask>
<path d="M16 4.75C16.4184 4.75 16.75 5.08157 16.75 5.5H13.75C13.75 6.73843 14.7616 7.75 16 7.75V4.75ZM16.75 5.5V2.5H13.75V5.5H16.75ZM16.75 2.5C16.75 2.91843 16.4184 3.25 16 3.25V0.25C14.7616 0.25 13.75 1.26157 13.75 2.5H16.75ZM16 3.25C15.5816 3.25 15.25 2.91843 15.25 2.5H18.25C18.25 1.26157 17.2384 0.25 16 0.25V3.25ZM15.25 2.5V5.5H18.25V2.5H15.25ZM15.25 5.5C15.25 5.08157 15.5816 4.75 16 4.75V7.75C17.2384 7.75 18.25 6.73843 18.25 5.5H15.25Z" fill="#757C98" mask="url(#path-3-inside-2_74_625)"/>
<mask id="path-5-inside-3_74_625" fill="white">
<path d="M20.5 10.34H3.5C3.09 10.34 2.75 9.99997 2.75 9.58997C2.75 9.17997 3.09 8.83997 3.5 8.83997H20.5C20.91 8.83997 21.25 9.17997 21.25 9.58997C21.25 9.99997 20.91 10.34 20.5 10.34Z"/>
</mask>
<path d="M20.5 8.83997H3.5V11.84H20.5V8.83997ZM3.5 8.83997C3.91843 8.83997 4.25 9.17154 4.25 9.58997H1.25C1.25 10.8284 2.26157 11.84 3.5 11.84V8.83997ZM4.25 9.58997C4.25 10.0084 3.91843 10.34 3.5 10.34V7.33997C2.26157 7.33997 1.25 8.35154 1.25 9.58997H4.25ZM3.5 10.34H20.5V7.33997H3.5V10.34ZM20.5 10.34C20.0816 10.34 19.75 10.0084 19.75 9.58997H22.75C22.75 8.35154 21.7384 7.33997 20.5 7.33997V10.34ZM19.75 9.58997C19.75 9.17154 20.0816 8.83997 20.5 8.83997V11.84C21.7384 11.84 22.75 10.8284 22.75 9.58997H19.75Z" fill="#757C98" mask="url(#path-5-inside-3_74_625)"/>
<mask id="path-7-inside-4_74_625" fill="white">
<path d="M16 23.25H8C4.35 23.25 2.25 21.15 2.25 17.5V9C2.25 5.35 4.35 3.25 8 3.25H16C19.65 3.25 21.75 5.35 21.75 9V17.5C21.75 21.15 19.65 23.25 16 23.25ZM8 4.75C5.14 4.75 3.75 6.14 3.75 9V17.5C3.75 20.36 5.14 21.75 8 21.75H16C18.86 21.75 20.25 20.36 20.25 17.5V9C20.25 6.14 18.86 4.75 16 4.75H8Z"/>
</mask>
<path d="M16 21.75H8V24.75H16V21.75ZM8 21.75C6.45973 21.75 5.44587 21.3121 4.81691 20.6831C4.18795 20.0541 3.75 19.0403 3.75 17.5H0.75C0.75 19.6097 1.36205 21.4709 2.69559 22.8044C4.02912 24.1379 5.89027 24.75 8 24.75V21.75ZM3.75 17.5V9H0.75V17.5H3.75ZM3.75 9C3.75 7.45973 4.18795 6.44587 4.81691 5.81691C5.44587 5.18795 6.45973 4.75 8 4.75V1.75C5.89027 1.75 4.02912 2.36205 2.69559 3.69559C1.36205 5.02912 0.75 6.89027 0.75 9H3.75ZM8 4.75H16V1.75H8V4.75ZM16 4.75C17.5403 4.75 18.5541 5.18795 19.1831 5.81691C19.8121 6.44587 20.25 7.45973 20.25 9H23.25C23.25 6.89027 22.6379 5.02912 21.3044 3.69559C19.9709 2.36205 18.1097 1.75 16 1.75V4.75ZM20.25 9V17.5H23.25V9H20.25ZM20.25 17.5C20.25 19.0403 19.8121 20.0541 19.1831 20.6831C18.5541 21.3121 17.5403 21.75 16 21.75V24.75C18.1097 24.75 19.9709 24.1379 21.3044 22.8044C22.6379 21.4709 23.25 19.6097 23.25 17.5H20.25ZM8 3.25C6.34953 3.25 4.83268 3.651 3.74184 4.74184C2.651 5.83268 2.25 7.34953 2.25 9H5.25C5.25 7.79047 5.544 7.18232 5.86316 6.86316C6.18232 6.544 6.79047 6.25 8 6.25V3.25ZM2.25 9V17.5H5.25V9H2.25ZM2.25 17.5C2.25 19.1505 2.651 20.6673 3.74184 21.7582C4.83268 22.849 6.34953 23.25 8 23.25V20.25C6.79047 20.25 6.18232 19.956 5.86316 19.6368C5.544 19.3177 5.25 18.7095 5.25 17.5H2.25ZM8 23.25H16V20.25H8V23.25ZM16 23.25C17.6505 23.25 19.1673 22.849 20.2582 21.7582C21.349 20.6673 21.75 19.1505 21.75 17.5H18.75C18.75 18.7095 18.456 19.3177 18.1368 19.6368C17.8177 19.956 17.2095 20.25 16 20.25V23.25ZM21.75 17.5V9H18.75V17.5H21.75ZM21.75 9C21.75 7.34953 21.349 5.83268 20.2582 4.74184C19.1673 3.651 17.6505 3.25 16 3.25V6.25C17.2095 6.25 17.8177 6.544 18.1368 6.86316C18.456 7.18232 18.75 7.79047 18.75 9H21.75ZM16 3.25H8V6.25H16V3.25Z" fill="#757C98" mask="url(#path-7-inside-4_74_625)"/>
<path d="M8.40846 13.7723L8.41657 13.7689L8.4246 13.7654C8.45506 13.7518 8.49648 13.7441 8.55293 13.7554L8.55443 13.7557L8.59227 13.7747L8.63158 13.7878L8.66647 13.8157L8.68444 13.83L8.69057 13.8371L8.70229 13.8508C8.70251 13.851 8.70273 13.8513 8.70294 13.8515L8.70595 13.856C8.70819 13.8594 8.70968 13.8619 8.71059 13.8634L8.72536 13.9077L8.74283 13.9427L8.74474 13.956C8.74667 13.9696 8.74787 13.9787 8.74869 13.9859C8.74973 13.9949 8.74996 13.999 8.75 14.0001C8.74998 14.0509 8.72684 14.1213 8.67899 14.179C8.62124 14.2269 8.55086 14.25 8.5 14.25C8.48373 14.25 8.45169 14.2457 8.40846 14.2277C8.37958 14.2157 8.35105 14.1997 8.32222 14.1778C8.30034 14.149 8.28432 14.1204 8.27229 14.0916C8.25428 14.0483 8.25 14.0163 8.25 14C8.25 13.9508 8.27165 13.8833 8.3164 13.8267C8.34722 13.8025 8.37764 13.7851 8.40846 13.7723Z" stroke="#757C98" stroke-width="1.5"/>
<path d="M11.8157 14.1665L11.7877 14.1316L11.7746 14.0923L11.7572 14.0573L11.7553 14.044C11.7533 14.0304 11.7521 14.0213 11.7513 14.0141C11.7498 14.001 11.75 13.9984 11.75 14C11.75 13.9837 11.7543 13.9517 11.7723 13.9085C11.7861 13.8752 11.8053 13.8425 11.8325 13.8092C11.9021 13.7504 12.0125 13.7374 12.0754 13.7653L12.0929 13.7731L12.1108 13.78C12.1247 13.7854 12.1354 13.791 12.1469 13.7985C12.1554 13.804 12.1667 13.8121 12.1821 13.8248C12.2278 13.8818 12.25 13.9502 12.25 13.9999C12.25 14.0011 12.2497 14.0051 12.2487 14.0141C12.2479 14.0213 12.2467 14.0304 12.2447 14.044L12.2428 14.0573L12.2254 14.0923L12.2123 14.1316L12.2122 14.1316L12.212 14.1319L12.2118 14.1322L12.2115 14.1325L12.2113 14.1328L12.2111 14.1331L12.2108 14.1334L12.2106 14.1337L12.2104 14.134L12.2101 14.1342L12.2099 14.1345L12.2096 14.1348L12.2094 14.1351L12.2092 14.1354L12.2089 14.1357L12.2087 14.136L12.2085 14.1363L12.2082 14.1366L12.208 14.1369L12.2078 14.1372L12.2075 14.1375L12.2073 14.1378L12.2071 14.1381L12.2068 14.1383L12.2066 14.1386L12.2064 14.1389L12.2061 14.1392L12.2059 14.1395L12.2057 14.1398L12.2054 14.1401L12.2052 14.1404L12.205 14.1407L12.2047 14.141L12.2045 14.1413L12.2043 14.1416L12.204 14.1419L12.2038 14.1422L12.2036 14.1424L12.2033 14.1427L12.2031 14.143L12.2029 14.1433L12.2026 14.1436L12.2024 14.1439L12.2021 14.1442L12.2019 14.1445L12.2017 14.1448L12.2014 14.1451L12.2012 14.1454L12.201 14.1457L12.2007 14.146L12.2005 14.1463L12.2003 14.1465L12.2 14.1468L12.1998 14.1471L12.1996 14.1474L12.1993 14.1477L12.1991 14.148L12.1989 14.1483L12.1986 14.1486L12.1984 14.1489L12.1982 14.1492L12.1979 14.1495L12.1977 14.1498L12.1975 14.1501L12.1972 14.1504L12.197 14.1506L12.1968 14.1509L12.1965 14.1512L12.1963 14.1515L12.1961 14.1518L12.1958 14.1521L12.1956 14.1524L12.1954 14.1527L12.1951 14.153L12.1949 14.1533L12.1946 14.1536L12.1944 14.1539L12.1942 14.1542L12.1939 14.1545L12.1937 14.1548L12.1935 14.155L12.1932 14.1553L12.193 14.1556L12.1928 14.1559L12.1925 14.1562L12.1923 14.1565L12.1921 14.1568L12.1918 14.1571L12.1916 14.1574L12.1914 14.1577L12.1911 14.158L12.1909 14.1583L12.1907 14.1586L12.1904 14.1589L12.1902 14.1591L12.19 14.1594L12.1897 14.1597L12.1895 14.16L12.1893 14.1603L12.189 14.1606L12.1888 14.1609L12.1886 14.1612L12.1883 14.1615L12.1881 14.1618L12.1879 14.1621L12.1876 14.1624L12.1874 14.1627L12.1871 14.163L12.1869 14.1632L12.1867 14.1635L12.1864 14.1638L12.1862 14.1641L12.186 14.1644L12.1857 14.1647L12.1855 14.165L12.1853 14.1653L12.185 14.1656L12.1848 14.1659L12.1846 14.1662L12.1843 14.1665L12.1841 14.1668L12.1839 14.1671L12.1836 14.1673L12.1834 14.1676L12.1832 14.1679L12.1829 14.1682L12.1827 14.1685L12.1825 14.1688L12.1822 14.1691L12.182 14.1694L12.1818 14.1697L12.1815 14.17L12.1813 14.1703L12.1811 14.1706L12.1808 14.1709L12.1806 14.1712L12.1804 14.1714L12.1801 14.1717L12.1799 14.172L12.1797 14.1723L12.1794 14.1726L12.1792 14.1729L12.1789 14.1732L12.1787 14.1735L12.1785 14.1738L12.1782 14.1741L12.178 14.1744L12.1778 14.1747L12.1775 14.175L12.1773 14.1753L12.1771 14.1755L12.1768 14.1758L12.1766 14.1761L12.1764 14.1764L12.1761 14.1767L12.1759 14.177L12.1757 14.1773L12.1754 14.1776L12.1752 14.1779L12.175 14.1782L12.1747 14.1785L12.1745 14.1788L12.1743 14.1791L12.174 14.1794L12.1738 14.1797L12.1736 14.1799L12.1733 14.1802L12.1731 14.1805L12.1729 14.1808L12.1726 14.1811L12.1724 14.1814L12.1722 14.1817L12.1719 14.182L12.1717 14.1823L12.1714 14.1826L12.1712 14.1829L12.171 14.1832L12.1707 14.1835L12.1705 14.1838L12.1703 14.184L12.17 14.1843L12.1698 14.1846L12.1696 14.1849L12.1693 14.1852L12.1691 14.1855L12.1689 14.1858C12.16 14.1927 12.1528 14.1977 12.1469 14.2015C12.1354 14.209 12.1247 14.2146 12.1108 14.22L12.1011 14.2237L12.0915 14.2277C12.0483 14.2457 12.0163 14.25 12 14.25C11.9528 14.25 11.8887 14.2301 11.8336 14.1889L11.8157 14.1665Z" stroke="#757C98" stroke-width="1.5"/>
<path d="M8.28 17.6108L8.27628 17.6011L8.27229 17.5915C8.25428 17.5483 8.25 17.5163 8.25 17.5C8.25 17.4508 8.27165 17.3833 8.3164 17.3267C8.34722 17.3025 8.37764 17.2851 8.40846 17.2723L8.40848 17.2724L8.41768 17.2684C8.49354 17.2356 8.59574 17.2507 8.66356 17.3058C8.66714 17.31 8.67046 17.3139 8.67346 17.3173L8.69057 17.3371L8.70229 17.3507C8.70251 17.351 8.70273 17.3513 8.70294 17.3515L8.70595 17.356C8.70819 17.3594 8.70968 17.3618 8.71059 17.3634L8.72536 17.4077L8.74124 17.4395C8.74472 17.4607 8.74714 17.4774 8.74869 17.4909C8.74945 17.4974 8.7498 17.5016 8.74996 17.5037C8.74888 17.5542 8.72572 17.6226 8.67899 17.679C8.62124 17.7269 8.55087 17.75 8.5 17.75C8.48373 17.75 8.45169 17.7457 8.40846 17.7277C8.37877 17.7153 8.34944 17.6987 8.31978 17.6759C8.30991 17.6636 8.30323 17.6543 8.29846 17.6469C8.29097 17.6354 8.28536 17.6247 8.28 17.6108ZM8.74919 17.4554C8.74919 17.4554 8.74919 17.4554 8.74919 17.4554L8.74919 17.4554Z" stroke="#757C98" stroke-width="1.5"/>
</svg>
