<svg width="56" height="56" viewBox="0 0 56 56" fill="none" xmlns="http://www.w3.org/2000/svg">
<rect width="56" height="56" rx="12" fill="white" fill-opacity="0.09"/>
<path d="M31.78 18H24.22C20.44 18 19.5 19.01 19.5 23.04V34.3C19.5 36.96 20.96 37.59 22.73 35.69L22.74 35.68C23.56 34.81 24.81 34.88 25.52 35.83L26.53 37.18C27.34 38.25 28.65 38.25 29.46 37.18L30.47 35.83C31.19 34.87 32.44 34.8 33.26 35.68C35.04 37.58 36.49 36.95 36.49 34.29V23.04C36.5 19.01 35.56 18 31.78 18ZM31 27.75H25C24.59 27.75 24.25 27.41 24.25 27C24.25 26.59 24.59 26.25 25 26.25H31C31.41 26.25 31.75 26.59 31.75 27C31.75 27.41 31.41 27.75 31 27.75ZM32 23.75H24C23.59 23.75 23.25 23.41 23.25 23C23.25 22.59 23.59 22.25 24 22.25H32C32.41 22.25 32.75 22.59 32.75 23C32.75 23.41 32.41 23.75 32 23.75Z" fill="white"/>
</svg>
