<svg width="25" height="24" viewBox="0 0 25 24" fill="none" xmlns="http://www.w3.org/2000/svg">
<mask id="path-1-inside-1_364_47" fill="white">
<path d="M12.1667 18.75C11.7567 18.75 11.4167 18.41 11.4167 18V15C11.4167 14.59 11.7567 14.25 12.1667 14.25C12.5767 14.25 12.9167 14.59 12.9167 15V18C12.9167 18.41 12.5767 18.75 12.1667 18.75Z"/>
</mask>
<path d="M12.1667 17.25C12.5852 17.25 12.9167 17.5816 12.9167 18H9.91675C9.91675 19.2384 10.9283 20.25 12.1667 20.25V17.25ZM12.9167 18V15H9.91675V18H12.9167ZM12.9167 15C12.9167 15.4184 12.5852 15.75 12.1667 15.75V12.75C10.9283 12.75 9.91675 13.7616 9.91675 15H12.9167ZM12.1667 15.75C11.7483 15.75 11.4167 15.4184 11.4167 15H14.4167C14.4167 13.7616 13.4052 12.75 12.1667 12.75V15.75ZM11.4167 15V18H14.4167V15H11.4167ZM11.4167 18C11.4167 17.5816 11.7483 17.25 12.1667 17.25V20.25C13.4052 20.25 14.4167 19.2384 14.4167 18H11.4167Z" fill="#757C98" mask="url(#path-1-inside-1_364_47)"/>
<path d="M1.94991 11.3176L1.94989 11.3176L3.27983 19.2873L1.94991 11.3176ZM1.94991 11.3176L1.94902 11.3126M1.94991 11.3176L1.94902 11.3126M1.94902 11.3126C1.85817 10.8005 1.93611 10.1859 2.16005 9.5996C2.38389 9.01355 2.73714 8.49908 3.14857 8.17076L3.14926 8.17021M1.94902 11.3126L3.14926 8.17021M3.14926 8.17021L10.0793 2.62022L10.0805 2.61924M3.14926 8.17021L10.0805 2.61924M10.0805 2.61924C11.2347 1.68894 13.0843 1.69437 14.2544 2.63038L14.2545 2.63049M10.0805 2.61924L14.2545 2.63049M14.2545 2.63049L21.1829 8.16921C21.1832 8.16942 21.1834 8.16962 21.1837 8.16983C21.5898 8.49749 21.9386 9.0115 22.1618 9.59882C22.3849 10.1858 22.4661 10.8032 22.3833 11.3188C22.3832 11.3193 22.3832 11.3198 22.3831 11.3203L21.0537 19.2764C21.0537 19.2767 21.0536 19.2769 21.0536 19.2772C20.794 20.8064 19.3025 22.0599 17.7667 22.0599H6.56671M14.2545 2.63049L6.56671 22.0599M6.56671 22.0599C4.98975 22.0599 3.53946 20.8353 3.27989 19.2876L6.56671 22.0599ZM10.3956 3.00853L10.3938 3.00995L3.46381 8.56995L3.46351 8.57019C3.09337 8.86762 2.81008 9.32559 2.63474 9.78373C2.45952 10.2416 2.36425 10.7724 2.44362 11.2428C2.44365 11.2429 2.44367 11.2431 2.4437 11.2433L3.77354 19.2023L3.7739 19.2044C3.99491 20.4937 5.25234 21.5599 6.56671 21.5599H17.7667C19.0822 21.5599 20.3391 20.4924 20.5597 19.1937L20.5599 19.1923L21.8899 11.2323L21.8899 11.2323L21.8906 11.2276C21.9635 10.7637 21.8656 10.2323 21.6915 9.77468C21.5178 9.31782 21.2376 8.85435 20.8691 8.55951L20.8689 8.5594L13.9391 3.01951C13.939 3.01947 13.939 3.01944 13.9389 3.0194C13.4349 2.61624 12.7788 2.42994 12.1567 2.42994C11.5341 2.42994 10.8888 2.61651 10.3956 3.00853Z" stroke="#757C98"/>
</svg>
