<svg width="25" height="24" viewBox="0 0 25 24" fill="none" xmlns="http://www.w3.org/2000/svg">
<mask id="path-1-inside-1_236_1314" fill="white">
<path d="M12.1667 18.75C11.7567 18.75 11.4167 18.41 11.4167 18V15C11.4167 14.59 11.7567 14.25 12.1667 14.25C12.5767 14.25 12.9167 14.59 12.9167 15V18C12.9167 18.41 12.5767 18.75 12.1667 18.75Z"/>
</mask>
<path d="M12.1667 17.25C12.5852 17.25 12.9167 17.5816 12.9167 18H9.91675C9.91675 19.2384 10.9283 20.25 12.1667 20.25V17.25ZM12.9167 18V15H9.91675V18H12.9167ZM12.9167 15C12.9167 15.4184 12.5852 15.75 12.1667 15.75V12.75C10.9283 12.75 9.91675 13.7616 9.91675 15H12.9167ZM12.1667 15.75C11.7483 15.75 11.4167 15.4184 11.4167 15H14.4167C14.4167 13.7616 13.4052 12.75 12.1667 12.75V15.75ZM11.4167 15V18H14.4167V15H11.4167ZM11.4167 18C11.4167 17.5816 11.7483 17.25 12.1667 17.25V20.25C13.4052 20.25 14.4167 19.2384 14.4167 18H11.4167Z" fill="#757C98" mask="url(#path-1-inside-1_236_1314)"/>
<path d="M1.94991 11.3177L1.94989 11.3177L3.27983 19.2874L1.94991 11.3177ZM1.94991 11.3177L1.94902 11.3127M1.94991 11.3177L1.94902 11.3127M1.94902 11.3127C1.85817 10.8006 1.93611 10.186 2.16005 9.59966C2.38389 9.01361 2.73714 8.49914 3.14857 8.17083L3.14926 8.17028M1.94902 11.3127L3.14926 8.17028M3.14926 8.17028L10.0793 2.62028L10.0805 2.6193M3.14926 8.17028L10.0805 2.6193M10.0805 2.6193C11.2347 1.689 13.0843 1.69443 14.2544 2.63044L14.2545 2.63055M10.0805 2.6193L14.2545 2.63055M14.2545 2.63055L21.1829 8.16927C21.1832 8.16948 21.1834 8.16969 21.1837 8.16989C21.5898 8.49755 21.9386 9.01156 22.1618 9.59888C22.3849 10.1859 22.4661 10.8032 22.3833 11.3189C22.3832 11.3194 22.3832 11.3199 22.3831 11.3204L21.0537 19.2765C21.0537 19.2767 21.0536 19.277 21.0536 19.2773C20.794 20.8065 19.3025 22.06 17.7667 22.06H6.56671M14.2545 2.63055L6.56671 22.06M6.56671 22.06C4.98975 22.06 3.53946 20.8353 3.27989 19.2877L6.56671 22.06ZM10.3956 3.00859L10.3938 3.01001L3.46381 8.57001L3.46351 8.57025C3.09337 8.86768 2.81008 9.32565 2.63474 9.78379C2.45952 10.2416 2.36425 10.7725 2.44362 11.2428C2.44365 11.243 2.44367 11.2432 2.4437 11.2433L3.77354 19.2024L3.7739 19.2045C3.99491 20.4937 5.25234 21.56 6.56671 21.56H17.7667C19.0822 21.56 20.3391 20.4925 20.5597 19.1937L20.5599 19.1924L21.8899 11.2324L21.8899 11.2324L21.8906 11.2276C21.9635 10.7637 21.8656 10.2324 21.6915 9.77474C21.5178 9.31788 21.2376 8.85442 20.8691 8.55957L20.8689 8.55946L13.9391 3.01957C13.939 3.01953 13.939 3.0195 13.9389 3.01946C13.4349 2.6163 12.7788 2.43001 12.1567 2.43001C11.5341 2.43001 10.8888 2.61657 10.3956 3.00859Z" stroke="#757C98"/>
</svg>
