<svg width="24" height="24" viewBox="0 0 24 24" fill="none" xmlns="http://www.w3.org/2000/svg">
<path d="M2 21.75H22C22.1339 21.75 22.25 21.8661 22.25 22C22.25 22.1339 22.1339 22.25 22 22.25H2C1.86614 22.25 1.75 22.1339 1.75 22C1.75 21.8661 1.86614 21.75 2 21.75Z" fill="white" stroke="white"/>
<path d="M7 2.5H17C18.3975 2.5 19.2416 2.91301 19.7481 3.49842C20.2665 4.09743 20.5051 4.96118 20.51 6.00102V21.5H15.51V15.94C15.51 15.1404 14.8527 14.5 14.07 14.5H9.94C9.14386 14.5 8.5 15.1439 8.5 15.94V21.5H3.5V6C3.5 4.96024 3.73645 4.09671 4.25343 3.49804C4.75857 2.91309 5.60236 2.5 7 2.5ZM13.25 11V9.75H14.5C15.1861 9.75 15.75 9.18614 15.75 8.5C15.75 7.81386 15.1861 7.25 14.5 7.25H13.25V6C13.25 5.31386 12.6861 4.75 12 4.75C11.3139 4.75 10.75 5.31386 10.75 6V7.25H9.5C8.81386 7.25 8.25 7.81386 8.25 8.5C8.25 9.18614 8.81386 9.75 9.5 9.75H10.75V11C10.75 11.6861 11.3139 12.25 12 12.25C12.6861 12.25 13.25 11.6861 13.25 11Z" fill="white" stroke="white"/>
</svg>
