<svg width="53" height="25" viewBox="0 0 53 25" fill="none" xmlns="http://www.w3.org/2000/svg">
<path d="M11.0489 3.42705C11.3483 2.50574 12.6517 2.50574 12.9511 3.42705L14.4697 8.10081C14.6035 8.51284 14.9875 8.7918 15.4207 8.7918H20.335C21.3037 8.7918 21.7065 10.0314 20.9228 10.6008L16.947 13.4894C16.5966 13.744 16.4499 14.1954 16.5838 14.6074L18.1024 19.2812C18.4017 20.2025 17.3472 20.9686 16.5635 20.3992L12.5878 17.5106C12.2373 17.256 11.7627 17.256 11.4122 17.5106L7.43648 20.3992C6.65276 20.9686 5.59828 20.2025 5.89763 19.2812L7.41623 14.6074C7.55011 14.1954 7.40345 13.744 7.05296 13.4894L3.07722 10.6008C2.29351 10.0314 2.69628 8.7918 3.66501 8.7918H8.57929C9.01252 8.7918 9.39647 8.51284 9.53035 8.10081L11.0489 3.42705Z" fill="#FFB063"/>
<path d="M32.048 19.5V16.876H26.576V15.052L31.92 7.58H34.192V15.052H35.936V16.876H34.192V19.5H32.048ZM28.176 15.836L27.792 15.052H32.048V9.292L32.608 9.468L28.176 15.836ZM38.4368 19.5V17.26H40.5488V19.5H38.4368ZM47.2676 19.692C46.6383 19.692 46.0356 19.5747 45.4596 19.34C44.8943 19.1053 44.4036 18.7747 43.9876 18.348C43.5823 17.9107 43.305 17.3933 43.1556 16.796L45.0436 16.124C45.225 16.668 45.5183 17.0733 45.9236 17.34C46.329 17.596 46.777 17.724 47.2676 17.724C47.673 17.724 48.0303 17.6387 48.3396 17.468C48.6596 17.2867 48.905 17.0413 49.0756 16.732C49.2463 16.412 49.3316 16.044 49.3316 15.628C49.3316 15.212 49.241 14.8493 49.0596 14.54C48.889 14.2307 48.649 13.9907 48.3396 13.82C48.0303 13.6387 47.673 13.548 47.2676 13.548C46.8516 13.548 46.473 13.6387 46.1316 13.82C45.801 14.0013 45.561 14.2627 45.4116 14.604L43.6356 14.204L44.5796 7.58H51.0756V9.42H45.4436L46.2596 8.476L45.5876 13.468L44.9636 12.956C45.2623 12.5187 45.625 12.1987 46.0516 11.996C46.489 11.7933 47.017 11.692 47.6356 11.692C48.425 11.692 49.1076 11.8627 49.6836 12.204C50.2703 12.5453 50.7236 13.0093 51.0436 13.596C51.3636 14.1827 51.5236 14.86 51.5236 15.628C51.5236 16.396 51.337 17.0893 50.9636 17.708C50.5903 18.3267 50.0836 18.812 49.4436 19.164C48.8036 19.516 48.0783 19.692 47.2676 19.692Z" fill="#FFB063"/>
</svg>
