<svg width="25" height="24" viewBox="0 0 25 24" fill="none" xmlns="http://www.w3.org/2000/svg">
<path d="M10.3658 3.34523L10.3664 3.34477C11.3577 2.54855 12.968 2.5512 13.9787 3.35611C13.9789 3.35626 13.9791 3.35641 13.9793 3.35656L20.5252 8.59329C20.8612 8.86808 21.165 9.31037 21.3636 9.83023C21.562 10.3495 21.6311 10.8823 21.5661 11.3116L20.3078 18.8417C20.3076 18.8424 20.3075 18.8432 20.3074 18.8439C20.0779 20.1582 18.7866 21.25 17.4667 21.25H6.86671C5.52499 21.25 4.2655 20.1864 4.03616 18.8547C4.03608 18.8542 4.03599 18.8537 4.03591 18.8532L2.77646 11.3164L2.77616 11.3147C2.70295 10.8827 2.76729 10.3494 2.96499 9.831C3.16265 9.31265 3.46999 8.87113 3.81447 8.59628L3.81578 8.59523L10.3658 3.34523ZM12.1667 19.5C12.9909 19.5 13.6667 18.8242 13.6667 18V15C13.6667 14.1758 12.9909 13.5 12.1667 13.5C11.3425 13.5 10.6667 14.1758 10.6667 15V18C10.6667 18.8242 11.3425 19.5 12.1667 19.5Z" fill="#2C40FF" stroke="#2C40FF" stroke-width="1.5"/>
</svg>
