<svg width="51" height="50" viewBox="0 0 51 50" fill="none" xmlns="http://www.w3.org/2000/svg">
<path d="M33.8334 8.85416C33.8334 11.4375 31.7292 13.5417 29.1459 13.5417H21.8542C20.5626 13.5417 19.3959 13.0208 18.5417 12.1667C17.6876 11.3125 17.1667 10.1458 17.1667 8.85416C17.1667 6.27082 19.2709 4.16666 21.8542 4.16666H29.1459C30.4376 4.16666 31.6042 4.68749 32.4584 5.54166C33.3126 6.39582 33.8334 7.56249 33.8334 8.85416Z" fill="#2C40FF"/>
<path d="M39.7291 10.4792C39.2499 10.0833 38.7083 9.77085 38.1249 9.54168C37.5208 9.31251 36.9166 9.79168 36.7916 10.4167C36.0833 13.9792 32.9374 16.6667 29.1458 16.6667H21.8541C19.7708 16.6667 17.8124 15.8542 16.3333 14.375C15.2499 13.2917 14.4999 11.9167 14.2083 10.4375C14.0833 9.81251 13.4583 9.31251 12.8541 9.56251C10.4374 10.5417 8.83325 12.75 8.83325 17.1875V37.5C8.83325 43.75 12.5624 45.8334 17.1666 45.8334H33.8333C38.4374 45.8334 42.1666 43.75 42.1666 37.5V17.1875C42.1666 13.7917 41.2291 11.7083 39.7291 10.4792ZM17.1666 25.5208H25.4999C26.3541 25.5208 27.0624 26.2292 27.0624 27.0833C27.0624 27.9375 26.3541 28.6458 25.4999 28.6458H17.1666C16.3124 28.6458 15.6041 27.9375 15.6041 27.0833C15.6041 26.2292 16.3124 25.5208 17.1666 25.5208ZM33.8333 36.9792H17.1666C16.3124 36.9792 15.6041 36.2708 15.6041 35.4167C15.6041 34.5625 16.3124 33.8542 17.1666 33.8542H33.8333C34.6874 33.8542 35.3958 34.5625 35.3958 35.4167C35.3958 36.2708 34.6874 36.9792 33.8333 36.9792Z" fill="#2C40FF"/>
</svg>
