<svg width="25" height="24" viewBox="0 0 25 24" fill="none" xmlns="http://www.w3.org/2000/svg">
<path d="M22.69 2.21C22.62 2.03 22.47 1.88 22.29 1.81C22.19 1.77 22.1 1.75 22 1.75H15.5C15.09 1.75 14.75 2.09 14.75 2.5C14.75 2.91 15.09 3.25 15.5 3.25H20.19L15.68 7.77H15.67C14.33 6.66 12.62 6 10.75 6C6.47 6 3 9.47 3 13.75C3 18.03 6.47 21.5 10.75 21.5C15.03 21.5 18.5 18.03 18.5 13.75C18.5 11.88 17.84 10.17 16.73 8.83L21.25 4.31V9C21.25 9.41 21.59 9.75 22 9.75C22.41 9.75 22.75 9.41 22.75 9V2.5C22.75 2.4 22.73 2.31 22.69 2.21Z" fill="#2C40FF"/>
</svg>
