<svg width="25" height="24" viewBox="0 0 25 24" fill="none" xmlns="http://www.w3.org/2000/svg">
<path d="M7.83301 2H6.83301C3.83301 2 2.83301 3.79 2.83301 6V7V21C2.83301 21.83 3.77301 22.3 4.43301 21.8L6.14301 20.52C6.54301 20.22 7.10301 20.26 7.46301 20.62L9.12301 22.29C9.51301 22.68 10.153 22.68 10.543 22.29L12.223 20.61C12.573 20.26 13.133 20.22 13.523 20.52L15.233 21.8C15.893 22.29 16.833 21.82 16.833 21V4C16.833 2.9 17.733 2 18.833 2H7.83301ZM12.083 13.75H7.58301C7.17301 13.75 6.83301 13.41 6.83301 13C6.83301 12.59 7.17301 12.25 7.58301 12.25H12.083C12.493 12.25 12.833 12.59 12.833 13C12.833 13.41 12.493 13.75 12.083 13.75ZM12.833 9.75H6.83301C6.42301 9.75 6.08301 9.41 6.08301 9C6.08301 8.59 6.42301 8.25 6.83301 8.25H12.833C13.243 8.25 13.583 8.59 13.583 9C13.583 9.41 13.243 9.75 12.833 9.75Z" fill="#2C40FF"/>
<path d="M18.843 2V3.5C19.503 3.5 20.133 3.77 20.593 4.22C21.073 4.71 21.333 5.34 21.333 6V8.42C21.333 9.16 21.003 9.5 20.253 9.5H18.333V4.01C18.333 3.73 18.563 3.5 18.843 3.5V2ZM18.843 2C17.733 2 16.833 2.9 16.833 4.01V11H20.253C21.833 11 22.833 10 22.833 8.42V6C22.833 4.9 22.383 3.9 21.663 3.17C20.933 2.45 19.943 2.01 18.843 2C18.853 2 18.843 2 18.843 2Z" fill="#2C40FF"/>
</svg>
