<svg width="25" height="24" viewBox="0 0 25 24" fill="none" xmlns="http://www.w3.org/2000/svg">
<path d="M23.0735 8.42L23.0735 8.42251C23.0779 9.30193 22.7861 10.0005 22.3096 10.4781C21.8329 10.9558 21.1337 11.25 20.2535 11.25H16.8335C16.6996 11.25 16.5835 11.1339 16.5835 11V4.01C16.5835 3.40411 16.8197 2.84085 17.247 2.41355C17.6743 1.98625 18.2376 1.75 18.8435 1.75H18.8515C19.9688 1.75944 21.0227 2.19633 21.8299 2.99357C22.6367 3.81029 23.0735 4.88335 23.0735 6L23.0735 8.42ZM17.0835 10.25V10.75H17.5835H20.2535C20.9289 10.75 21.5274 10.5532 21.957 10.1236C22.3867 9.6939 22.5835 9.09541 22.5835 8.42V6C22.5835 5.00634 22.1902 4.06109 21.4899 3.34933L21.4899 3.34929L21.4841 3.34354C20.7826 2.65352 19.8493 2.26154 18.8593 2.25003L18.8593 2.25H18.8535H18.8535H18.8535H18.8535H18.8535H18.8535H18.8535H18.8535H18.8535H18.8535H18.8535H18.8535H18.8535H18.8535H18.8535H18.8535H18.8535H18.8535H18.8535H18.8535H18.8535H18.8535H18.8535H18.8535H18.8535H18.8535H18.8535H18.8535H18.8534H18.8534H18.8534H18.8534H18.8534H18.8534H18.8534H18.8534H18.8534H18.8534H18.8534H18.8534H18.8534H18.8534H18.8534H18.8534H18.8534H18.8534H18.8534H18.8534H18.8534H18.8534H18.8534H18.8534H18.8534H18.8534H18.8534H18.8534H18.8534H18.8534H18.8534H18.8534H18.8534H18.8534H18.8534H18.8533H18.8533H18.8533H18.8533H18.8533H18.8533H18.8533H18.8533H18.8533H18.8533H18.8533H18.8533H18.8533H18.8533H18.8533H18.8533H18.8533H18.8533H18.8533H18.8533H18.8533H18.8533H18.8532H18.8532H18.8532H18.8532H18.8532H18.8532H18.8532H18.8532H18.8532H18.8532H18.8532H18.8532H18.8532H18.8532H18.8532H18.8532H18.8532H18.8531H18.8531H18.8531H18.8531H18.8531H18.8531H18.8531H18.8531H18.8531H18.8531H18.8531H18.8531H18.8531H18.8531H18.853H18.853H18.853H18.853H18.853H18.853H18.853H18.853H18.853H18.853H18.853H18.853H18.853H18.8529H18.8529H18.8529H18.8529H18.8529H18.8529H18.8529H18.8529H18.8529H18.8529H18.8529H18.8528H18.8528H18.8528H18.8528H18.8528H18.8528H18.8528H18.8528H18.8528H18.8528H18.8527H18.8527H18.8527H18.8527H18.8527H18.8527H18.8527H18.8527H18.8527H18.8526H18.8526H18.8526H18.8526H18.8526H18.8526H18.8526H18.8526H18.8525H18.8525H18.8525H18.8525H18.8525H18.8525H18.8525H18.8525H18.8524H18.8524H18.8524H18.8524H18.8524H18.8524H18.8524H18.8523H18.8523H18.8523H18.8523H18.8523H18.8523H18.8523H18.8522H18.8522H18.8522H18.8522H18.8522H18.8522H18.8522H18.8521H18.8521H18.8521H18.8521H18.8521H18.8521H18.852H18.852H18.852H18.852H18.852H18.852H18.8519H18.8519H18.8519H18.8519H18.8519H18.8519H18.8518H18.8518H18.8518H18.8518H18.8518H18.8517H18.8517H18.8517H18.8517H18.8517H18.8517H18.8516H18.8516H18.8516H18.8516H18.8516H18.8515H18.8515H18.8515H18.8515H18.8515H18.8514H18.8514H18.8514H18.8514H18.8514H18.8513H18.8513H18.8513H18.8513H18.8512H18.8512H18.8512H18.8512H18.8512H18.8511H18.8511H18.8511H18.8511H18.851H18.851H18.851H18.851H18.851H18.8509H18.8509H18.8509H18.8509H18.8508H18.8508H18.8508H18.8508H18.8507H18.8507H18.8507H18.8507H18.8506H18.8506H18.8506H18.8506H18.8505H18.8505H18.8505H18.8504H18.8504H18.8504H18.8504H18.8503H18.8503H18.8503H18.8503H18.8502H18.8502H18.8502H18.8501H18.8501H18.8501H18.8501H18.85H18.85H18.85H18.8499H18.8499H18.8499H18.8499H18.8498H18.8498H18.8498H18.8497H18.8497H18.8497H18.8496H18.8496H18.8496H18.8495H18.8495H18.8495H18.8495H18.8494H18.8494H18.8494H18.8493H18.8493H18.8493H18.8492H18.8492H18.8492H18.8491H18.8491H18.8491H18.849H18.849H18.849H18.8489H18.8489H18.8488H18.8488H18.8488H18.8487H18.8487H18.8487H18.8486H18.8486H18.8486H18.8485H18.8485H18.8484H18.8484H18.8484H18.8483H18.8483H18.8483H18.8482H18.8482H18.8481H18.8481H18.8481H18.848H18.848H18.8479H18.8479H18.8479H18.8478H18.8478H18.8477H18.8477H18.8477H18.8476H18.8476H18.8475H18.8475H18.8475H18.8474H18.8474H18.8473H18.8473H18.8472H18.8472H18.8472H18.8471H18.8471H18.847H18.847H18.8469H18.8469H18.8469H18.8468H18.8468H18.8467H18.8467H18.8466H18.8466H18.8465H18.8465H18.8464H18.8464H18.8463H18.8463H18.8463H18.8462H18.8462H18.8461H18.8461H18.846H18.846H18.8459H18.8459H18.8458H18.8458H18.8457H18.8457H18.8456H18.8456H18.8455H18.8455H18.8454H18.8454H18.8453H18.8453H18.8452H18.8452H18.8451H18.8451H18.845H18.845H18.8449H18.8448H18.8448H18.8447H18.8447H18.8446H18.8446H18.8445H18.8445H18.8444H18.8444H18.8443H18.8442H18.8442H18.8441H18.8441H18.844H18.844H18.8439H18.8439H18.8438H18.8437H18.8437H18.8436H18.8436H18.8435C18.3815 2.25 17.9341 2.43224 17.5999 2.76645C17.2672 3.09915 17.0835 3.53589 17.0835 4.01V10.25Z" fill="#757C98" stroke="#757C98"/>
<path d="M8.95205 22.4618L8.95208 22.4617L8.94787 22.4575L7.28784 20.7875L7.28678 20.7864C7.02426 20.5239 6.60304 20.4864 6.29881 20.7233L4.59362 21.9997L4.59205 22.0009C4.21167 22.288 3.71476 22.3367 3.28684 22.1228C2.85651 21.9076 2.59326 21.4809 2.59326 21V6C2.59326 4.58436 2.99705 3.53832 3.68932 2.84605C4.38158 2.15379 5.42762 1.75 6.84326 1.75H18.8433C18.9771 1.75 19.0933 1.86614 19.0933 2C19.0933 2.13386 18.9771 2.25 18.8433 2.25C17.8771 2.25 17.0933 3.03386 17.0933 4V21C17.0933 21.4809 16.83 21.9076 16.3996 22.1228L16.3966 22.1243C15.9813 22.3355 15.4758 22.2887 15.0945 22.0009L15.0929 21.9997L13.3877 20.7233C13.0681 20.4744 12.6477 20.5485 12.4097 20.7864L10.7326 22.4635C10.485 22.7027 10.1704 22.83 9.83325 22.83C9.49454 22.83 9.1852 22.702 8.95205 22.4618ZM7.63459 20.4384L7.63456 20.4384L7.63862 20.4425L9.29865 22.1125L9.29971 22.1136C9.496 22.3098 9.73623 22.33 9.83325 22.33C9.93028 22.33 10.1705 22.3098 10.3668 22.1136L10.0274 21.7741L10.3668 22.1136L12.0468 20.4336C12.4886 19.9917 13.187 19.9489 13.6787 20.3265L13.6787 20.3266L13.684 20.3306L15.384 21.6006L15.384 21.6006L15.3891 21.6044C15.7053 21.8343 16.0304 21.7508 16.2005 21.6487C16.2711 21.6064 16.5833 21.4171 16.5833 21V4C16.5833 3.63091 16.6736 3.27906 16.828 2.9784L17.2021 2.25H16.3832H6.83325C5.6556 2.25 4.68862 2.52253 4.0222 3.18895C3.35578 3.85537 3.08325 4.82235 3.08325 6V21C3.08325 21.4179 3.38107 21.6078 3.46601 21.6587L3.48248 21.6686L3.49966 21.6772C3.67423 21.7645 3.9927 21.8273 4.28794 21.5965L5.99116 20.3215C5.99149 20.3213 5.99183 20.3211 5.99216 20.3208C6.21605 20.155 6.48125 20.07 6.74323 20.07C7.07869 20.07 7.39586 20.1926 7.63459 20.4384Z" fill="#757C98" stroke="#757C98"/>
<path d="M12.8335 9.25H6.8335C6.69964 9.25 6.5835 9.13386 6.5835 9C6.5835 8.86614 6.69964 8.75 6.8335 8.75H12.8335C12.9674 8.75 13.0835 8.86614 13.0835 9C13.0835 9.13386 12.9674 9.25 12.8335 9.25Z" fill="#757C98" stroke="#757C98"/>
<path d="M12.0835 13.25H7.5835C7.44964 13.25 7.3335 13.1339 7.3335 13C7.3335 12.8661 7.44964 12.75 7.5835 12.75H12.0835C12.2174 12.75 12.3335 12.8661 12.3335 13C12.3335 13.1339 12.2174 13.25 12.0835 13.25Z" fill="#757C98" stroke="#757C98"/>
</svg>
