<svg width="50" height="50" viewBox="0 0 50 50" fill="none" xmlns="http://www.w3.org/2000/svg">
<rect x="0.5" y="0.5" width="49" height="49" rx="24.5" stroke="#F1F1F1"/>
<path d="M32.3399 27.49L31.3399 25.83C31.1299 25.46 30.9399 24.76 30.9399 24.35V21.82C30.9399 19.47 29.5599 17.44 27.5699 16.49C27.0499 15.57 26.0899 15 24.9899 15C23.8999 15 22.9199 15.59 22.3999 16.52C20.4499 17.49 19.0999 19.5 19.0999 21.82V24.35C19.0999 24.76 18.9099 25.46 18.6999 25.82L17.6899 27.49C17.2899 28.16 17.1999 28.9 17.4499 29.58C17.6899 30.25 18.2599 30.77 18.9999 31.02C20.9399 31.68 22.9799 32 25.0199 32C27.0599 32 29.0999 31.68 31.0399 31.03C31.7399 30.8 32.2799 30.27 32.5399 29.58C32.7999 28.89 32.7299 28.13 32.3399 27.49Z" fill="#161616"/>
<path d="M27.8299 33.01C27.4099 34.17 26.2999 35 24.9999 35C24.2099 35 23.4299 34.68 22.8799 34.11C22.5599 33.81 22.3199 33.41 22.1799 33C22.3099 33.02 22.4399 33.03 22.5799 33.05C22.8099 33.08 23.0499 33.11 23.2899 33.13C23.8599 33.18 24.4399 33.21 25.0199 33.21C25.5899 33.21 26.1599 33.18 26.7199 33.13C26.9299 33.11 27.1399 33.1 27.3399 33.07C27.4999 33.05 27.6599 33.03 27.8299 33.01Z" fill="#161616"/>
</svg>
