<svg width="24" height="25" viewBox="0 0 24 25" fill="none" xmlns="http://www.w3.org/2000/svg">
<path d="M10.9422 16.4099L10.9559 16.4124C11.2826 16.4726 11.6361 16.5 12 16.5C12.3655 16.5 12.7223 16.4724 13.0233 16.4208L13.0312 16.4194L13.0391 16.4183C14.9701 16.1295 16.7143 15.0374 17.8269 13.3925C18.5941 12.2361 19 10.8914 19 9.5C19 5.64421 15.8558 2.5 12 2.5C15.8626 2.5 19.0006 5.63446 18.99 9.49108C18.99 9.49144 18.99 9.49181 18.99 9.49217L18.24 9.48999C18.24 10.74 17.88 11.94 17.2 12.96L10.9422 16.4099ZM10.9422 16.4099L10.9285 16.4079C9.33198 16.1744 7.84935 15.3656 6.76114 14.148C7.8463 15.3576 9.32016 16.1641 10.9325 16.4008C11.6442 16.5221 12.3552 16.5243 13.0317 16.4002L10.9422 16.4099Z" stroke="#757C98" stroke-width="1.5"/>
<mask id="path-2-inside-1_74_667" fill="white">
<path d="M6.46982 23.09C6.32982 23.09 6.19982 23.07 6.05982 23.04C5.40982 22.89 4.90982 22.39 4.75982 21.74L4.40982 20.27C4.38982 20.18 4.31982 20.11 4.21982 20.08L2.56982 19.69C1.94982 19.54 1.45982 19.08 1.28982 18.47C1.11982 17.86 1.28982 17.2 1.73982 16.75L5.63982 12.85C5.79982 12.69 6.01982 12.61 6.23982 12.63C6.45982 12.65 6.65982 12.77 6.78982 12.96C7.77982 14.42 9.32982 15.41 11.0598 15.66C11.6998 15.77 12.3298 15.77 12.9198 15.66C14.6698 15.41 16.2198 14.42 17.2098 12.96C17.3298 12.77 17.5398 12.65 17.7598 12.63C17.9798 12.61 18.1998 12.69 18.3598 12.85L22.2598 16.75C22.7098 17.2 22.8798 17.86 22.7098 18.47C22.5398 19.08 22.0398 19.55 21.4298 19.69L19.7798 20.08C19.6898 20.1 19.6198 20.17 19.5898 20.27L19.2398 21.74C19.0898 22.39 18.5898 22.89 17.9398 23.04C17.2898 23.2 16.6198 22.97 16.1998 22.46L11.9998 17.63L7.79982 22.47C7.45982 22.87 6.97982 23.09 6.46982 23.09ZM6.08982 14.53L2.79982 17.82C2.70982 17.91 2.71982 18.01 2.73982 18.07C2.74982 18.12 2.79982 18.22 2.91982 18.24L4.56982 18.63C5.21982 18.78 5.71982 19.28 5.86982 19.93L6.21982 21.4C6.24982 21.53 6.34982 21.57 6.40982 21.59C6.46982 21.6 6.56982 21.61 6.65982 21.51L10.4898 17.1C8.78982 16.77 7.22982 15.86 6.08982 14.53ZM13.5098 17.09L17.3398 21.49C17.4298 21.6 17.5398 21.6 17.5998 21.58C17.6598 21.57 17.7498 21.52 17.7898 21.39L18.1398 19.92C18.2898 19.27 18.7898 18.77 19.4398 18.62L21.0898 18.23C21.2098 18.2 21.2598 18.11 21.2698 18.06C21.2898 18.01 21.2998 17.9 21.2098 17.81L17.9198 14.52C16.7698 15.85 15.2198 16.76 13.5098 17.09Z"/>
</mask>
<path d="M6.05982 23.04L5.72253 24.5016L5.73401 24.5042L5.74552 24.5067L6.05982 23.04ZM4.75982 21.74L6.22144 21.4027L6.21903 21.3925L4.75982 21.74ZM4.40982 20.27L2.94554 20.5954L2.94799 20.6064L2.95061 20.6174L4.40982 20.27ZM4.21982 20.08L4.65084 18.6432L4.60818 18.6304L4.56484 18.6202L4.21982 20.08ZM2.56982 19.69L2.21709 21.1479L2.22479 21.1498L2.56982 19.69ZM1.73982 16.75L0.679158 15.6893L0.679157 15.6893L1.73982 16.75ZM5.63982 12.85L6.70048 13.9106L6.70048 13.9106L5.63982 12.85ZM6.78982 12.96L8.03132 12.1181L8.02778 12.1129L6.78982 12.96ZM11.0598 15.66L11.3139 14.1816L11.2942 14.1783L11.2744 14.1754L11.0598 15.66ZM12.9198 15.66L12.7077 14.175L12.6762 14.1795L12.6449 14.1854L12.9198 15.66ZM17.2098 12.96L18.4513 13.8018L18.465 13.7816L18.4781 13.7609L17.2098 12.96ZM18.3598 12.85L17.2992 13.9106V13.9106L18.3598 12.85ZM22.2598 16.75L23.3205 15.6893V15.6893L22.2598 16.75ZM21.4298 19.69L21.0943 18.228L21.0848 18.2302L21.4298 19.69ZM19.7798 20.08L20.1052 21.5442L20.115 21.5421L20.1248 21.5397L19.7798 20.08ZM19.5898 20.27L18.1531 19.8389L18.1406 19.8804L18.1306 19.9225L19.5898 20.27ZM19.2398 21.74L17.7806 21.3925L17.7782 21.4027L19.2398 21.74ZM17.9398 23.04L17.6025 21.5784L17.5919 21.5808L17.5813 21.5835L17.9398 23.04ZM16.1998 22.46L17.3577 21.5064L17.3449 21.4909L17.3317 21.4757L16.1998 22.46ZM11.9998 17.63L13.1317 16.6457L11.9986 15.3427L10.8669 16.6469L11.9998 17.63ZM7.79982 22.47L6.6669 21.4869L6.66188 21.4927L6.65691 21.4985L7.79982 22.47ZM6.08982 14.53L7.2287 13.5538L6.17454 12.3239L5.02916 13.4693L6.08982 14.53ZM2.79982 17.82L3.86048 18.8806L3.86048 18.8806L2.79982 17.82ZM2.73982 18.07L4.21069 17.7758L4.19237 17.6842L4.16284 17.5956L2.73982 18.07ZM2.91982 18.24L3.26487 16.7802L3.21597 16.7686L3.16642 16.7604L2.91982 18.24ZM4.56982 18.63L4.22476 20.0898L4.23253 20.0916L4.56982 18.63ZM5.86982 19.93L4.4082 20.2673L4.41061 20.2774L5.86982 19.93ZM6.21982 21.4L7.68144 21.0627L7.67903 21.0525L6.21982 21.4ZM6.40982 21.59L5.93548 23.013L6.04713 23.0502L6.16322 23.0696L6.40982 21.59ZM6.65982 21.51L7.77476 22.5134L7.78363 22.5036L7.79233 22.4935L6.65982 21.51ZM10.4898 17.1L11.6223 18.0835L13.3255 16.1224L10.7757 15.6275L10.4898 17.1ZM13.5098 17.09L13.2256 15.6171L10.6686 16.1106L12.3784 18.0748L13.5098 17.09ZM17.3398 21.49L18.5008 20.5401L18.4863 20.5224L18.4712 20.5051L17.3398 21.49ZM17.5998 21.58L17.3532 20.1004L17.2371 20.1197L17.1255 20.1569L17.5998 21.58ZM17.7898 21.39L19.2235 21.8311L19.2378 21.7847L19.249 21.7374L17.7898 21.39ZM18.1398 19.92L19.5991 20.2674L19.6014 20.2573L18.1398 19.92ZM19.4398 18.62L19.7771 20.0816L19.7848 20.0797L19.4398 18.62ZM21.0898 18.23L21.4348 19.6898L21.4442 19.6875L21.4536 19.6852L21.0898 18.23ZM21.2698 18.06L19.8771 17.5029L19.826 17.6307L19.7989 17.7658L21.2698 18.06ZM21.2098 17.81L20.1492 18.8706L20.1492 18.8706L21.2098 17.81ZM17.9198 14.52L18.9805 13.4593L17.84 12.3189L16.7852 13.5389L17.9198 14.52ZM6.46982 21.59C6.4772 21.59 6.46171 21.592 6.37411 21.5733L5.74552 24.5067C5.93792 24.5479 6.18244 24.59 6.46982 24.59V21.59ZM6.39711 21.5784C6.30603 21.5574 6.24243 21.4938 6.2214 21.4027L3.29823 22.0772C3.5772 23.2861 4.5136 24.2226 5.72253 24.5016L6.39711 21.5784ZM6.21903 21.3925L5.86903 19.9225L2.95061 20.6174L3.30061 22.0874L6.21903 21.3925ZM5.8741 19.9446C5.71855 19.2446 5.18777 18.8043 4.65084 18.6432L3.7888 21.5167C3.45186 21.4156 3.06109 21.1153 2.94554 20.5954L5.8741 19.9446ZM4.56484 18.6202L2.91484 18.2302L2.22479 21.1498L3.87479 21.5397L4.56484 18.6202ZM2.92254 18.232C2.81079 18.205 2.75333 18.1339 2.73475 18.0673L-0.155119 18.8727C0.166307 20.026 1.08884 20.8749 2.21709 21.1479L2.92254 18.232ZM2.73475 18.0673C2.70884 17.9743 2.73641 17.8747 2.80048 17.8106L0.679157 15.6893C-0.156778 16.5252 -0.469202 17.7457 -0.155119 18.8727L2.73475 18.0673ZM2.80048 17.8106L6.70048 13.9106L4.57916 11.7893L0.679158 15.6893L2.80048 17.8106ZM6.70048 13.9106C6.55096 14.0601 6.33472 14.1448 6.10401 14.1238L6.37562 11.1361C5.70491 11.0752 5.04867 11.3198 4.57916 11.7893L6.70048 13.9106ZM6.10401 14.1238C5.85745 14.1014 5.66221 13.9683 5.55186 13.807L8.02778 12.1129C7.65742 11.5716 7.06218 11.1985 6.37562 11.1361L6.10401 14.1238ZM5.54832 13.8018C6.76784 15.6003 8.68527 16.8324 10.8453 17.1446L11.2744 14.1754C9.97437 13.9875 8.7918 13.2396 8.03131 12.1181L5.54832 13.8018ZM10.8057 17.1383C11.6065 17.2759 12.4162 17.2797 13.1947 17.1346L12.6449 14.1854C12.2434 14.2602 11.7931 14.264 11.3139 14.1816L10.8057 17.1383ZM13.132 17.1449C15.3113 16.8336 17.2304 15.6023 18.4513 13.8018L15.9683 12.1181C15.2092 13.2376 14.0283 13.9864 12.7077 14.175L13.132 17.1449ZM18.4781 13.7609C18.3319 13.9924 18.1076 14.1045 17.8956 14.1238L17.624 11.1361C16.972 11.1954 16.3278 11.5475 15.9416 12.159L18.4781 13.7609ZM17.8956 14.1238C17.6649 14.1448 17.4487 14.0601 17.2992 13.9106L19.4205 11.7893C18.951 11.3198 18.2947 11.0752 17.624 11.1361L17.8956 14.1238ZM17.2992 13.9106L21.1992 17.8106L23.3205 15.6893L19.4205 11.7893L17.2992 13.9106ZM21.1992 17.8106C21.2632 17.8747 21.2908 17.9743 21.2649 18.0673L24.1548 18.8727C24.4688 17.7457 24.1564 16.5252 23.3205 15.6893L21.1992 17.8106ZM21.2649 18.0673C21.2443 18.1412 21.1747 18.2095 21.0943 18.228L21.7654 21.152C22.9049 20.8904 23.8353 20.0188 24.1548 18.8727L21.2649 18.0673ZM21.0848 18.2302L19.4348 18.6202L20.1248 21.5397L21.7748 21.1498L21.0848 18.2302ZM19.4544 18.6157C18.7544 18.7712 18.3141 19.302 18.1531 19.8389L21.0266 20.701C20.9255 21.0379 20.6252 21.4287 20.1052 21.5442L19.4544 18.6157ZM18.1306 19.9225L17.7806 21.3925L20.699 22.0874L21.049 20.6174L18.1306 19.9225ZM17.7782 21.4027C17.7572 21.4938 17.6936 21.5574 17.6025 21.5784L18.2771 24.5016C19.486 24.2226 20.4224 23.2861 20.7014 22.0772L17.7782 21.4027ZM17.5813 21.5835C17.5006 21.6033 17.417 21.5784 17.3577 21.5064L15.0419 23.4135C15.8226 24.3615 17.0791 24.7966 18.2983 24.4965L17.5813 21.5835ZM17.3317 21.4757L13.1317 16.6457L10.8679 18.6142L15.0679 23.4442L17.3317 21.4757ZM10.8669 16.6469L6.6669 21.4869L8.93273 23.4531L13.1327 18.6131L10.8669 16.6469ZM6.65691 21.4985C6.59998 21.5655 6.53679 21.59 6.46982 21.59V24.59C7.42285 24.59 8.31966 24.1745 8.94273 23.4414L6.65691 21.4985ZM5.02916 13.4693L1.73916 16.7593L3.86048 18.8806L7.15048 15.5906L5.02916 13.4693ZM1.73916 16.7593C1.10898 17.3895 1.18876 18.1602 1.31679 18.5443L4.16284 17.5956C4.2047 17.7212 4.2487 17.9219 4.21349 18.1684C4.17466 18.4402 4.04902 18.6921 3.86048 18.8806L1.73916 16.7593ZM1.26895 18.3642C1.35236 18.7812 1.72495 19.5615 2.67322 19.7195L3.16642 16.7604C3.50218 16.8163 3.76268 16.9966 3.93037 17.1934C4.07617 17.3646 4.16833 17.564 4.21069 17.7758L1.26895 18.3642ZM2.57477 19.6997L4.22477 20.0897L4.91487 17.1702L3.26487 16.7802L2.57477 19.6997ZM4.23253 20.0916C4.32364 20.1126 4.38721 20.1762 4.40823 20.2673L7.3314 19.5927C7.05242 18.3838 6.11599 17.4474 4.90711 17.1684L4.23253 20.0916ZM4.41061 20.2774L4.76061 21.7474L7.67903 21.0525L7.32903 19.5825L4.41061 20.2774ZM4.75823 21.7373C4.97698 22.6852 5.78235 22.9619 5.93548 23.013L6.88416 20.1669C6.89327 20.17 7.05929 20.2211 7.23567 20.361C7.44364 20.5259 7.61385 20.7699 7.6814 21.0627L4.75823 21.7373ZM6.16322 23.0696C6.37703 23.1052 7.15733 23.1995 7.77476 22.5134L5.54488 20.5065C5.72119 20.3106 5.96409 20.1734 6.2295 20.1203C6.45957 20.0743 6.63861 20.1074 6.65642 20.1104L6.16322 23.0696ZM7.79233 22.4935L11.6223 18.0835L9.3573 16.1164L5.5273 20.5264L7.79233 22.4935ZM10.7757 15.6275C9.41105 15.3626 8.15061 14.6293 7.2287 13.5538L4.95093 15.5062C6.30903 17.0906 8.16859 18.1774 10.204 18.5725L10.7757 15.6275ZM12.3784 18.0748L16.2084 22.4748L18.4712 20.5051L14.6412 16.1051L12.3784 18.0748ZM16.1789 22.4398C16.7272 23.1099 17.526 23.1857 18.0742 23.003L17.1255 20.1569C17.3375 20.0863 17.5828 20.0647 17.8356 20.1262C18.1127 20.1936 18.3436 20.348 18.5008 20.5401L16.1789 22.4398ZM17.8464 23.0595C18.443 22.9601 19.0094 22.5269 19.2235 21.8311L16.3561 20.9489C16.4902 20.5131 16.8767 20.1798 17.3532 20.1004L17.8464 23.0595ZM19.249 21.7374L19.599 20.2674L16.6806 19.5726L16.3306 21.0426L19.249 21.7374ZM19.6014 20.2573C19.6224 20.1662 19.686 20.1026 19.7771 20.0816L19.1025 17.1584C17.8936 17.4374 16.9572 18.3738 16.6782 19.5827L19.6014 20.2573ZM19.7848 20.0797L21.4348 19.6898L20.7448 16.7702L19.0948 17.1602L19.7848 20.0797ZM21.4536 19.6852C22.2193 19.4938 22.6349 18.8832 22.7407 18.3541L19.7989 17.7658C19.8848 17.3367 20.2003 16.9062 20.726 16.7748L21.4536 19.6852ZM22.6625 18.6171C22.8453 18.1601 22.8885 17.3673 22.2705 16.7493L20.1492 18.8706C19.9429 18.6643 19.8299 18.405 19.7953 18.1563C19.7648 17.9368 19.7927 17.714 19.8771 17.5029L22.6625 18.6171ZM22.2705 16.7493L18.9805 13.4593L16.8592 15.5806L20.1492 18.8706L22.2705 16.7493ZM16.7852 13.5389C15.8495 14.621 14.5962 15.3526 13.2256 15.6171L13.794 18.5628C15.8435 18.1673 17.6901 17.0789 19.0545 15.5011L16.7852 13.5389Z" fill="#757C98" mask="url(#path-2-inside-1_74_667)"/>
<path d="M12.386 11.8869L12.2961 11.8329C12.3101 11.8396 12.3236 11.8468 12.3365 11.8545L12.3402 11.8566L13.1402 12.3267L13.5362 12.5593C13.4754 12.5335 13.4083 12.4998 13.3346 12.456C13.3342 12.4558 13.3338 12.4556 13.3334 12.4554L12.386 11.8869ZM10.5167 7.96402C10.4647 7.99088 10.4117 8.01043 10.3614 8.01942L9.4993 8.14825L9.14641 8.20098C9.19028 8.18906 9.2379 8.17876 9.28957 8.17042L9.28957 8.17044L9.29456 8.1696L10.3646 7.98961L10.5167 7.96402ZM14.6817 8.1775L14.7227 8.18247C14.7481 8.18689 14.7726 8.19182 14.7961 8.19723L14.6817 8.1775ZM12.8168 6.95042L12.6682 6.65915L12.5096 6.34829C12.5325 6.3854 12.5551 6.4261 12.577 6.47069L12.577 6.4707L12.5793 6.47543L12.8168 6.95042ZM11.4254 6.45692C11.446 6.41717 11.467 6.38065 11.4881 6.3471L11.346 6.63124L11.4254 6.45692ZM9.94057 10.7102L9.95948 10.6291C9.95836 10.6578 9.95504 10.6854 9.94938 10.7112L9.76044 11.5067L9.67679 11.8589C9.68305 11.8214 9.69092 11.7818 9.70064 11.7399C9.70065 11.7399 9.70067 11.7398 9.70069 11.7397L9.94057 10.7102Z" stroke="#757C98" stroke-width="1.5"/>
</svg>
