<svg width="24" height="25" viewBox="0 0 24 25" fill="none" xmlns="http://www.w3.org/2000/svg">
<path d="M11.4 22.75H7.6C5.46785 22.75 4.03739 22.2728 3.1323 21.3677C2.22721 20.4626 1.75 19.0321 1.75 16.9V13.1C1.75 10.9679 2.22721 9.53739 3.1323 8.6323C4.03739 7.72721 5.46785 7.25 7.6 7.25H10.6C10.7339 7.25 10.85 7.36614 10.85 7.5C10.85 7.63386 10.7339 7.75 10.6 7.75H7.6C5.77505 7.75 4.38945 8.06844 3.47895 8.97895C2.56844 9.88945 2.25 11.2751 2.25 13.1V16.9C2.25 18.7249 2.56844 20.1105 3.47895 21.0211C4.38945 21.9316 5.77505 22.25 7.6 22.25H11.4C13.2249 22.25 14.6105 21.9316 15.5211 21.0211C16.4316 20.1105 16.75 18.7249 16.75 16.9V13.9C16.75 13.7661 16.8661 13.65 17 13.65C17.1339 13.65 17.25 13.7661 17.25 13.9V16.9C17.25 19.0321 16.7728 20.4626 15.8677 21.3677C14.9626 22.2728 13.5321 22.75 11.4 22.75Z" stroke="#757C98"/>
<path d="M10.4929 7.27536L10.5 7.27257L10.5071 7.26956C10.5872 7.2352 10.695 7.24812 10.7816 7.32858L17.1765 13.7235C17.2461 13.7931 17.2677 13.9062 17.2305 13.993L17.2275 14.0001L17.2247 14.0072C17.1943 14.0847 17.1068 14.15 17.0001 14.15H13.8001C12.4461 14.15 11.6222 13.8725 11.1249 13.3752C10.6276 12.8778 10.3501 12.054 10.3501 10.7V7.49999C10.3501 7.39333 10.4154 7.30582 10.4929 7.27536ZM11.7037 8.95644L10.8501 8.10288V9.30999V10.7C10.8501 11.6836 10.9502 12.4997 11.4753 13.0248C12.0004 13.5499 12.8165 13.65 13.8001 13.65H15.1901H16.3972L15.5437 12.7964L11.7037 8.95644Z" stroke="#757C98"/>
<path d="M15.6001 2.75H11.6001C11.4662 2.75 11.3501 2.63386 11.3501 2.5C11.3501 2.36614 11.4662 2.25 11.6001 2.25H15.6001C15.734 2.25 15.8501 2.36614 15.8501 2.5C15.8501 2.63386 15.734 2.75 15.6001 2.75Z" stroke="#757C98"/>
<path d="M7 5.75C6.86614 5.75 6.75 5.63386 6.75 5.5C6.75 3.70614 8.20614 2.25 10 2.25H12.62C12.7539 2.25 12.87 2.36614 12.87 2.5C12.87 2.63386 12.7539 2.75 12.62 2.75H10C8.48386 2.75 7.25 3.98386 7.25 5.5C7.25 5.63386 7.13386 5.75 7 5.75Z" stroke="#757C98"/>
<path d="M19.1899 17.75C19.0561 17.75 18.9399 17.6339 18.9399 17.5C18.9399 17.3661 19.0561 17.25 19.1899 17.25C20.6077 17.25 21.7499 16.0946 21.7499 14.69V8.5C21.7499 8.36614 21.8661 8.25 21.9999 8.25C22.1338 8.25 22.2499 8.36614 22.2499 8.5V14.69C22.2499 16.3739 20.8738 17.75 19.1899 17.75Z" stroke="#757C98"/>
<path d="M15.8928 2.27536L15.8999 2.27257L15.907 2.26956C15.9871 2.2352 16.0949 2.24812 16.1815 2.32858L22.1764 8.32354C22.246 8.39306 22.2676 8.50621 22.2304 8.59303L22.2274 8.60005L22.2246 8.60716C22.1942 8.68468 22.1067 8.74999 22 8.74999H19C17.7223 8.74999 16.9477 8.48555 16.4811 8.01894C16.0144 7.55232 15.75 6.77773 15.75 5.49999V2.49999C15.75 2.39333 15.8153 2.30582 15.8928 2.27536ZM17.1036 3.95644L16.25 3.10288V4.30999V5.49999C16.25 6.4029 16.3398 7.16944 16.8352 7.66479C17.3305 8.16014 18.0971 8.24999 19 8.24999H20.19H21.3971L20.5436 7.39644L17.1036 3.95644Z" stroke="#757C98"/>
</svg>
