<svg width="24" height="24" viewBox="0 0 24 24" fill="none" xmlns="http://www.w3.org/2000/svg">
<mask id="path-1-inside-1_136_2232" fill="white">
<path d="M11.8798 14.99C11.6898 14.99 11.4998 14.92 11.3498 14.77L8.78977 12.21C8.49977 11.92 8.49977 11.44 8.78977 11.15C9.07977 10.86 9.55977 10.86 9.84977 11.15L11.8798 13.18L13.9098 11.15C14.1998 10.86 14.6798 10.86 14.9698 11.15C15.2598 11.44 15.2598 11.92 14.9698 12.21L12.4098 14.77C12.2598 14.92 12.0698 14.99 11.8798 14.99Z"/>
</mask>
<path d="M11.3498 14.77L10.2891 15.8307L11.3498 14.77ZM8.78977 12.21L9.85043 11.1493L8.78977 12.21ZM9.84977 11.15L10.9104 10.0893L10.9104 10.0893L9.84977 11.15ZM11.8798 13.18L10.8191 14.2407L11.8798 15.3013L12.9404 14.2407L11.8798 13.18ZM13.9098 11.15L12.8491 10.0893V10.0893L13.9098 11.15ZM14.9698 12.21L16.0304 13.2707L14.9698 12.21ZM12.4098 14.77L11.3491 13.7093L12.4098 14.77ZM11.8798 13.49C12.0661 13.49 12.2643 13.5632 12.4104 13.7093L10.2891 15.8307C10.7352 16.2768 11.3134 16.49 11.8798 16.49V13.49ZM12.4104 13.7093L9.85043 11.1493L7.72911 13.2707L10.2891 15.8307L12.4104 13.7093ZM9.85043 11.1493C10.1462 11.4451 10.1462 11.9149 9.85043 12.2107L7.72911 10.0893C6.85332 10.9651 6.85332 12.3949 7.72911 13.2707L9.85043 11.1493ZM9.85043 12.2107C9.55464 12.5064 9.08489 12.5064 8.78911 12.2107L10.9104 10.0893C10.0346 9.21355 8.60489 9.21355 7.72911 10.0893L9.85043 12.2107ZM8.78911 12.2107L10.8191 14.2407L12.9404 12.1193L10.9104 10.0893L8.78911 12.2107ZM12.9404 14.2407L14.9704 12.2107L12.8491 10.0893L10.8191 12.1193L12.9404 14.2407ZM14.9704 12.2107C14.6746 12.5064 14.2049 12.5064 13.9091 12.2107L16.0304 10.0893C15.1546 9.21355 13.7249 9.21355 12.8491 10.0893L14.9704 12.2107ZM13.9091 12.2107C13.6133 11.9149 13.6133 11.4451 13.9091 11.1493L16.0304 13.2707C16.9062 12.3949 16.9062 10.9651 16.0304 10.0893L13.9091 12.2107ZM13.9091 11.1493L11.3491 13.7093L13.4704 15.8307L16.0304 13.2707L13.9091 11.1493ZM11.3491 13.7093C11.4952 13.5632 11.6934 13.49 11.8798 13.49V16.49C12.4461 16.49 13.0243 16.2768 13.4704 15.8307L11.3491 13.7093Z" fill="#757C98" mask="url(#path-1-inside-1_136_2232)"/>
<mask id="path-3-inside-2_136_2232" fill="white">
<path d="M11.8799 14.92C11.4699 14.92 11.1299 14.58 11.1299 14.17V4C11.1299 3.59 11.4699 3.25 11.8799 3.25C12.2899 3.25 12.6299 3.59 12.6299 4V14.17C12.6299 14.58 12.2899 14.92 11.8799 14.92Z"/>
</mask>
<path d="M11.8799 13.42C12.2983 13.42 12.6299 13.7516 12.6299 14.17H9.62988C9.62988 15.4084 10.6415 16.42 11.8799 16.42V13.42ZM12.6299 14.17V4H9.62988V14.17H12.6299ZM12.6299 4C12.6299 4.41843 12.2983 4.75 11.8799 4.75V1.75C10.6415 1.75 9.62988 2.76157 9.62988 4H12.6299ZM11.8799 4.75C11.4615 4.75 11.1299 4.41843 11.1299 4H14.1299C14.1299 2.76157 13.1183 1.75 11.8799 1.75V4.75ZM11.1299 4V14.17H14.1299V4H11.1299ZM11.1299 14.17C11.1299 13.7516 11.4615 13.42 11.8799 13.42V16.42C13.1183 16.42 14.1299 15.4084 14.1299 14.17H11.1299Z" fill="#757C98" mask="url(#path-3-inside-2_136_2232)"/>
<path d="M12 20.1801C9.60439 20.1801 7.61395 19.3458 6.22408 17.956C4.83421 16.5661 4 14.5757 4 12.1801C4 14.4941 4.81059 16.5038 6.24342 17.9366C7.67625 19.3695 9.68592 20.1801 12 20.1801ZM12 20.1801C14.3956 20.1801 16.386 19.3458 17.7759 17.956C19.1658 16.5661 20 14.5757 20 12.1801C20 14.4941 19.1894 16.5038 17.7566 17.9366C16.3238 19.3695 14.3141 20.1801 12 20.1801Z" stroke="#757C98" stroke-width="1.5"/>
</svg>
