<svg width="21" height="20" viewBox="0 0 21 20" fill="none" xmlns="http://www.w3.org/2000/svg">
<path d="M18.0749 5.81667C17.3665 5.03334 16.1832 4.64167 14.4665 4.64167H14.2665V4.60834C14.2665 3.20834 14.2665 1.47501 11.1332 1.47501H9.86653C6.7332 1.47501 6.7332 3.21667 6.7332 4.60834V4.65001H6.5332C4.8082 4.65001 3.6332 5.04167 2.92487 5.82501C2.09987 6.74167 2.12487 7.97501 2.2082 8.81667L2.21654 8.87501L2.27732 9.51329C2.29159 9.66306 2.37234 9.79844 2.49834 9.88066C2.70039 10.0125 3.01013 10.2113 3.19987 10.3167C3.31654 10.3917 3.44154 10.4583 3.56654 10.525C4.99154 11.3083 6.5582 11.8333 8.14987 12.0917C8.22487 12.875 8.56653 13.7917 10.3915 13.7917C12.2165 13.7917 12.5749 12.8833 12.6332 12.075C14.3332 11.8 15.9749 11.2083 17.4582 10.3417C17.5082 10.3167 17.5415 10.2917 17.5832 10.2667C17.9034 10.0857 18.2352 9.864 18.5398 9.64533C18.653 9.56406 18.7253 9.43792 18.7407 9.29941L18.7499 9.21667L18.7915 8.82501C18.7999 8.77501 18.7999 8.73334 18.8082 8.67501C18.8749 7.83334 18.8582 6.68334 18.0749 5.81667ZM11.4082 11.525C11.4082 12.4083 11.4082 12.5417 10.3832 12.5417C9.3582 12.5417 9.3582 12.3833 9.3582 11.5333V10.4833H11.4082V11.525ZM7.92487 4.64167V4.60834C7.92487 3.19167 7.92487 2.66667 9.86653 2.66667H11.1332C13.0749 2.66667 13.0749 3.20001 13.0749 4.60834V4.65001H7.92487V4.64167Z" fill="#2C40FF"/>
<path d="M17.7599 11.5091C18.114 11.3418 18.5212 11.6223 18.4858 12.0123L18.2002 15.1583C18.0252 16.825 17.3419 18.525 13.6752 18.525H7.32519C3.65853 18.525 2.9752 16.825 2.8002 15.1667L2.52948 12.1888C2.49444 11.8034 2.89276 11.5233 3.2458 11.682C4.205 12.1131 5.817 12.8064 6.85299 13.0854C7.01699 13.1296 7.15014 13.2476 7.22454 13.4003C7.73875 14.4556 8.82794 15.0167 10.3919 15.0167C11.9404 15.0167 13.0429 14.434 13.559 13.3755C13.6335 13.2227 13.7666 13.1048 13.9307 13.0604C15.0325 12.7619 16.7538 11.9846 17.7599 11.5091Z" fill="#2C40FF"/>
</svg>
