<svg width="21" height="20" viewBox="0 0 21 20" fill="none" xmlns="http://www.w3.org/2000/svg">
<path d="M18.6332 8.95L17.4999 7.63333C17.2832 7.38333 17.1082 6.91667 17.1082 6.58333V5.16666C17.1082 4.28333 16.3832 3.55833 15.4999 3.55833H14.0832C13.7582 3.55833 13.2832 3.38333 13.0332 3.16666L11.7166 2.03333C11.1416 1.54166 10.1999 1.54166 9.61657 2.03333L8.30824 3.175C8.05824 3.38333 7.58324 3.55833 7.25824 3.55833H5.81657C4.93324 3.55833 4.20824 4.28333 4.20824 5.16666V6.59166C4.20824 6.91666 4.03324 7.38333 3.8249 7.63333L2.6999 8.95833C2.21657 9.53333 2.21657 10.4667 2.6999 11.0417L3.8249 12.3667C4.03324 12.6167 4.20824 13.0833 4.20824 13.4083V14.8333C4.20824 15.7167 4.93324 16.4417 5.81657 16.4417H7.25824C7.58324 16.4417 8.05824 16.6167 8.30824 16.8333L9.6249 17.9667C10.1999 18.4583 11.1416 18.4583 11.7249 17.9667L13.0416 16.8333C13.2916 16.6167 13.7582 16.4417 14.0916 16.4417H15.5082C16.3916 16.4417 17.1166 15.7167 17.1166 14.8333V13.4167C17.1166 13.0917 17.2916 12.6167 17.5082 12.3667L18.6416 11.05C19.1249 10.475 19.1249 9.525 18.6332 8.95ZM14.1332 8.425L10.1082 12.45C9.99157 12.5667 9.83324 12.6333 9.66657 12.6333C9.4999 12.6333 9.34157 12.5667 9.2249 12.45L7.20824 10.4333C6.96657 10.1917 6.96657 9.79167 7.20824 9.55C7.4499 9.30833 7.8499 9.30833 8.09157 9.55L9.66657 11.125L13.2499 7.54167C13.4916 7.3 13.8916 7.3 14.1332 7.54167C14.3749 7.78333 14.3749 8.18333 14.1332 8.425Z" fill="#2C40FF"/>
</svg>
