<svg width="24" height="24" viewBox="0 0 24 24" fill="none" xmlns="http://www.w3.org/2000/svg">
<path d="M11 20C6.03421 20 2 15.9658 2 11M11 20C15.9658 20 20 15.9658 20 11M11 20C15.9642 20 20 15.9642 20 11M11 20C6.03579 20 2 15.9642 2 11M2 11C2 6.03421 6.03421 2 11 2M2 11C2 6.03579 6.03579 2 11 2M20 11C20 6.03421 15.9658 2 11 2M20 11C20 6.03579 15.9642 2 11 2" stroke="white" stroke-width="1.5"/>
<path d="M19.2529 21.5329C19.2925 21.5847 19.3426 21.6447 19.4033 21.7048C19.2204 21.5257 19.0109 21.227 18.8414 20.7221C18.6565 20.1669 18.7393 19.675 18.9889 19.3279C19.2358 18.9848 19.6807 18.75 20.2701 18.75C19.8087 18.75 19.3196 18.9021 19.0043 19.3144L18.9956 19.3258L18.9874 19.3375C18.6819 19.7702 18.7038 20.3031 18.849 20.7284C18.9531 21.0453 19.0895 21.319 19.2529 21.5329ZM20.9115 21.7542C21.0058 21.6829 21.0986 21.5991 21.189 21.5041C20.8705 21.8465 20.581 21.973 20.3714 22.0175C20.6017 21.9667 20.7906 21.8458 20.9115 21.7542Z" stroke="white" stroke-width="1.5"/>
</svg>
