<svg width="21" height="20" viewBox="0 0 21 20" fill="none" xmlns="http://www.w3.org/2000/svg">
<path d="M5.11614 13.3333C5.20781 12.925 5.04114 12.3417 4.74948 12.05L2.72448 10.025C2.09114 9.39166 1.84114 8.71666 2.02448 8.13332C2.21614 7.54999 2.80781 7.14999 3.69114 6.99999L6.29114 6.56666C6.66614 6.49999 7.12448 6.16666 7.29948 5.82499L8.73281 2.94999C9.14948 2.12499 9.71614 1.66666 10.3328 1.66666C10.9495 1.66666 11.5161 2.12499 11.9328 2.94999L13.3661 5.82499C13.4745 6.04166 13.6995 6.24999 13.9411 6.39166L4.96614 15.3667C4.84948 15.4833 4.64948 15.375 4.68281 15.2083L5.11614 13.3333Z" fill="#2C40FF"/>
<path d="M15.9165 12.05C15.6165 12.35 15.4498 12.925 15.5498 13.3333L16.1248 15.8417C16.3665 16.8833 16.2165 17.6667 15.6998 18.0417C15.4915 18.1917 15.2415 18.2667 14.9498 18.2667C14.5248 18.2667 14.0248 18.1083 13.4748 17.7833L11.0332 16.3333C10.6498 16.1083 10.0165 16.1083 9.63317 16.3333L7.1915 17.7833C6.2665 18.325 5.47484 18.4167 4.9665 18.0417C4.77484 17.9 4.63317 17.7083 4.5415 17.4583L14.6748 7.32499C15.0582 6.94165 15.5998 6.76665 16.1248 6.85832L16.9665 6.99999C17.8498 7.14999 18.4415 7.54999 18.6332 8.13332C18.8165 8.71665 18.5665 9.39165 17.9332 10.025L15.9165 12.05Z" fill="#2C40FF"/>
</svg>
