<svg width="20" height="20" viewBox="0 0 20 20" fill="none" xmlns="http://www.w3.org/2000/svg">
<path d="M4.78313 13.3333C4.8748 12.925 4.70813 12.3416 4.41647 12.05L2.39147 10.025C1.75813 9.39163 1.50813 8.71663 1.69147 8.13329C1.88313 7.54996 2.4748 7.14996 3.35813 6.99996L5.95813 6.56663C6.33313 6.49996 6.79147 6.16663 6.96647 5.82496L8.3998 2.94996C8.81647 2.12496 9.38313 1.66663 9.9998 1.66663C10.6165 1.66663 11.1831 2.12496 11.5998 2.94996L13.0331 5.82496C13.1415 6.04163 13.3665 6.24996 13.6081 6.39163L4.63313 15.3666C4.51647 15.4833 4.31647 15.375 4.3498 15.2083L4.78313 13.3333Z" fill="#FFB063"/>
<path d="M15.5835 12.05C15.2835 12.35 15.1168 12.925 15.2168 13.3333L15.7918 15.8416C16.0335 16.8833 15.8835 17.6666 15.3668 18.0416C15.1585 18.1916 14.9085 18.2666 14.6168 18.2666C14.1918 18.2666 13.6918 18.1083 13.1418 17.7833L10.7002 16.3333C10.3168 16.1083 9.6835 16.1083 9.30016 16.3333L6.8585 17.7833C5.9335 18.325 5.14183 18.4166 4.6335 18.0416C4.44183 17.9 4.30016 17.7083 4.2085 17.4583L14.3418 7.32496C14.7252 6.94162 15.2668 6.76662 15.7918 6.85829L16.6335 6.99995C17.5168 7.14995 18.1085 7.54996 18.3002 8.13329C18.4835 8.71662 18.2335 9.39162 17.6002 10.025L15.5835 12.05Z" fill="#FFB063"/>
</svg>
