<svg width="115" height="20" viewBox="0 0 115 20" fill="none" xmlns="http://www.w3.org/2000/svg">
<path d="M4.78313 13.3333C4.8748 12.925 4.70813 12.3416 4.41647 12.05L2.39147 10.025C1.75813 9.39163 1.50813 8.71663 1.69147 8.13329C1.88313 7.54996 2.4748 7.14996 3.35813 6.99996L5.95813 6.56663C6.33313 6.49996 6.79147 6.16663 6.96647 5.82496L8.3998 2.94996C8.81647 2.12496 9.38313 1.66663 9.9998 1.66663C10.6165 1.66663 11.1831 2.12496 11.5998 2.94996L13.0331 5.82496C13.1415 6.04163 13.3665 6.24996 13.6081 6.39163L4.63313 15.3666C4.51647 15.4833 4.31647 15.375 4.3498 15.2083L4.78313 13.3333Z" fill="#FFB063"/>
<path d="M15.5835 12.05C15.2835 12.35 15.1168 12.925 15.2168 13.3333L15.7918 15.8416C16.0335 16.8833 15.8835 17.6666 15.3668 18.0416C15.1585 18.1916 14.9085 18.2666 14.6168 18.2666C14.1918 18.2666 13.6918 18.1083 13.1418 17.7833L10.7002 16.3333C10.3168 16.1083 9.6835 16.1083 9.30016 16.3333L6.8585 17.7833C5.9335 18.325 5.14183 18.4166 4.6335 18.0416C4.44183 17.9 4.30016 17.7083 4.2085 17.4583L14.3418 7.32496C14.7252 6.94162 15.2668 6.76662 15.7918 6.85829L16.6335 6.99995C17.5168 7.14995 18.1085 7.54996 18.3002 8.13329C18.4835 8.71662 18.2335 9.39162 17.6002 10.025L15.5835 12.05Z" fill="#FFB063"/>
<path d="M26.7831 13.3333C26.8748 12.925 26.7081 12.3416 26.4165 12.05L24.3915 10.025C23.7581 9.39163 23.5081 8.71663 23.6915 8.13329C23.8831 7.54996 24.4748 7.14996 25.3581 6.99996L27.9581 6.56663C28.3331 6.49996 28.7915 6.16663 28.9665 5.82496L30.3998 2.94996C30.8165 2.12496 31.3831 1.66663 31.9998 1.66663C32.6165 1.66663 33.1831 2.12496 33.5998 2.94996L35.0331 5.82496C35.1415 6.04163 35.3665 6.24996 35.6081 6.39163L26.6331 15.3666C26.5165 15.4833 26.3165 15.375 26.3498 15.2083L26.7831 13.3333Z" fill="#FFB063"/>
<path d="M37.5835 12.05C37.2835 12.35 37.1168 12.925 37.2168 13.3333L37.7918 15.8416C38.0335 16.8833 37.8835 17.6666 37.3668 18.0416C37.1585 18.1916 36.9085 18.2666 36.6168 18.2666C36.1918 18.2666 35.6918 18.1083 35.1418 17.7833L32.7002 16.3333C32.3168 16.1083 31.6835 16.1083 31.3002 16.3333L28.8585 17.7833C27.9335 18.325 27.1418 18.4166 26.6335 18.0416C26.4418 17.9 26.3002 17.7083 26.2085 17.4583L36.3418 7.32496C36.7252 6.94162 37.2668 6.76662 37.7918 6.85829L38.6335 6.99995C39.5168 7.14995 40.1085 7.54996 40.3002 8.13329C40.4835 8.71662 40.2335 9.39162 39.6002 10.025L37.5835 12.05Z" fill="#FFB063"/>
<path d="M48.7831 13.3333C48.8748 12.925 48.7081 12.3416 48.4165 12.05L46.3915 10.025C45.7581 9.39163 45.5081 8.71663 45.6915 8.13329C45.8831 7.54996 46.4748 7.14996 47.3581 6.99996L49.9581 6.56663C50.3331 6.49996 50.7915 6.16663 50.9665 5.82496L52.3998 2.94996C52.8165 2.12496 53.3831 1.66663 53.9998 1.66663C54.6165 1.66663 55.1831 2.12496 55.5998 2.94996L57.0331 5.82496C57.1415 6.04163 57.3665 6.24996 57.6081 6.39163L48.6331 15.3666C48.5165 15.4833 48.3165 15.375 48.3498 15.2083L48.7831 13.3333Z" fill="#FFB063"/>
<path d="M59.5835 12.05C59.2835 12.35 59.1168 12.925 59.2168 13.3333L59.7918 15.8416C60.0335 16.8833 59.8835 17.6666 59.3668 18.0416C59.1585 18.1916 58.9085 18.2666 58.6168 18.2666C58.1918 18.2666 57.6918 18.1083 57.1418 17.7833L54.7002 16.3333C54.3168 16.1083 53.6835 16.1083 53.3002 16.3333L50.8585 17.7833C49.9335 18.325 49.1418 18.4166 48.6335 18.0416C48.4418 17.9 48.3002 17.7083 48.2085 17.4583L58.3418 7.32496C58.7252 6.94162 59.2668 6.76662 59.7918 6.85829L60.6335 6.99995C61.5168 7.14995 62.1085 7.54996 62.3002 8.13329C62.4835 8.71662 62.2335 9.39162 61.6002 10.025L59.5835 12.05Z" fill="#FFB063"/>
<path d="M70.7831 13.3333C70.8748 12.925 70.7081 12.3416 70.4165 12.05L68.3915 10.025C67.7581 9.39163 67.5081 8.71663 67.6915 8.13329C67.8831 7.54996 68.4748 7.14996 69.3581 6.99996L71.9581 6.56663C72.3331 6.49996 72.7915 6.16663 72.9665 5.82496L74.3998 2.94996C74.8165 2.12496 75.3831 1.66663 75.9998 1.66663C76.6165 1.66663 77.1831 2.12496 77.5998 2.94996L79.0331 5.82496C79.1415 6.04163 79.3665 6.24996 79.6081 6.39163L70.6331 15.3666C70.5165 15.4833 70.3165 15.375 70.3498 15.2083L70.7831 13.3333Z" fill="#FFB063"/>
<path d="M81.5835 12.05C81.2835 12.35 81.1168 12.925 81.2168 13.3333L81.7918 15.8416C82.0335 16.8833 81.8835 17.6666 81.3668 18.0416C81.1585 18.1916 80.9085 18.2666 80.6168 18.2666C80.1918 18.2666 79.6918 18.1083 79.1418 17.7833L76.7002 16.3333C76.3168 16.1083 75.6835 16.1083 75.3002 16.3333L72.8585 17.7833C71.9335 18.325 71.1418 18.4166 70.6335 18.0416C70.4418 17.9 70.3002 17.7083 70.2085 17.4583L80.3418 7.32496C80.7252 6.94162 81.2668 6.76662 81.7918 6.85829L82.6335 6.99995C83.5168 7.14995 84.1085 7.54996 84.3002 8.13329C84.4835 8.71662 84.2335 9.39162 83.6002 10.025L81.5835 12.05Z" fill="#FFB063"/>
<path d="M92.7831 13.3333C92.8748 12.925 92.7081 12.3416 92.4165 12.05L90.3915 10.025C89.7581 9.39163 89.5081 8.71663 89.6915 8.13329C89.8831 7.54996 90.4748 7.14996 91.3581 6.99996L93.9581 6.56663C94.3331 6.49996 94.7915 6.16663 94.9665 5.82496L96.3998 2.94996C96.8165 2.12496 97.3831 1.66663 97.9998 1.66663C98.6165 1.66663 99.1831 2.12496 99.5998 2.94996L101.033 5.82496C101.141 6.04163 101.366 6.24996 101.608 6.39163L92.6331 15.3666C92.5165 15.4833 92.3165 15.375 92.3498 15.2083L92.7831 13.3333Z" fill="#FFB063" fill-opacity="0.21"/>
<path d="M103.583 12.05C103.283 12.35 103.117 12.925 103.217 13.3333L103.792 15.8416C104.033 16.8833 103.883 17.6666 103.367 18.0416C103.158 18.1916 102.908 18.2666 102.617 18.2666C102.192 18.2666 101.692 18.1083 101.142 17.7833L98.7002 16.3333C98.3168 16.1083 97.6835 16.1083 97.3002 16.3333L94.8585 17.7833C93.9335 18.325 93.1418 18.4166 92.6335 18.0416C92.4418 17.9 92.3002 17.7083 92.2085 17.4583L102.342 7.32496C102.725 6.94162 103.267 6.76662 103.792 6.85829L104.633 6.99995C105.517 7.14995 106.108 7.54996 106.3 8.13329C106.483 8.71662 106.233 9.39162 105.6 10.025L103.583 12.05Z" fill="#FFB063" fill-opacity="0.21"/>
</svg>
