<svg width="51" height="50" viewBox="0 0 51 50" fill="none" xmlns="http://www.w3.org/2000/svg">
<path d="M7.70021 45.0164L7.69791 45.0181C6.6551 45.8081 5.1665 45.0696 5.1665 43.75V14.5833V12.5C5.1665 10.2632 5.67378 8.31628 6.86785 6.93355C8.05007 5.56454 9.9772 4.66666 12.9998 4.66666H15.0832H35.1205C34.0337 5.52282 33.3332 6.84981 33.3332 8.33332V43.75C33.3332 45.0435 31.8465 45.7929 30.7986 45.0157C30.7983 45.0155 30.7981 45.0154 30.7979 45.0152L27.2422 42.3537C27.2413 42.353 27.2404 42.3523 27.2395 42.3516C26.2246 41.5731 24.7783 41.6811 23.8755 42.5839L20.3755 46.0839C19.7583 46.7011 18.7417 46.7012 18.1245 46.0842C18.1244 46.0841 18.1243 46.084 18.1242 46.0839L14.667 42.6058L14.6659 42.6048C13.7421 41.6809 12.2971 41.5739 11.2623 42.35L7.70021 45.0164ZM14.5623 29.1458H23.9373C25.0676 29.1458 25.9998 28.2136 25.9998 27.0833C25.9998 25.953 25.0676 25.0208 23.9373 25.0208H14.5623C13.432 25.0208 12.4998 25.953 12.4998 27.0833C12.4998 28.2136 13.432 29.1458 14.5623 29.1458ZM12.9998 20.8125H25.4998C26.6301 20.8125 27.5623 19.8803 27.5623 18.75C27.5623 17.6197 26.6301 16.6875 25.4998 16.6875H12.9998C11.8695 16.6875 10.9373 17.6197 10.9373 18.75C10.9373 19.8803 11.8695 20.8125 12.9998 20.8125Z" fill="#2C40FF" stroke="#2C40FF"/>
<path d="M42.024 8.44177L42.0241 8.44169L42.0165 8.43424C41.0847 7.52273 39.8459 6.93374 38.521 6.81419V4.68673C40.4745 4.82506 42.2237 5.6582 43.5424 6.95774C44.9543 8.39046 45.8335 10.3487 45.8335 12.5V17.5417C45.8335 19.0804 45.3487 20.2881 44.5268 21.11C43.7049 21.9319 42.4973 22.4167 40.9585 22.4167H34.3335V8.35416C34.3335 6.48738 35.7211 4.94433 37.521 4.70028V6.87416C36.9048 7.08384 36.4585 7.66934 36.4585 8.35416V19.7917V20.2917H36.9585H40.9585C41.8044 20.2917 42.5239 20.1009 43.0242 19.5971C43.5239 19.0939 43.7085 18.3753 43.7085 17.5417V12.5C43.7085 10.99 43.1126 9.55306 42.024 8.44177Z" fill="#2C40FF" stroke="#2C40FF"/>
</svg>
